<svg xmlns="http://www.w3.org/2000/svg" xmlns:xlink="http://www.w3.org/1999/xlink"
    viewBox="0 0 1083.35 390.2">
    <defs>
        <style>
            .cls-1 {
            isolation: isolate;
            }

            .cls-2 {
            fill: url(#linear-gradient);
            }

            .cls-3 {
            fill: url(#linear-gradient-2);
            }

            .cls-4 {
            fill: url(#linear-gradient-3);
            }

            .cls-5 {
            fill: url(#linear-gradient-4);
            }

            .cls-6 {
            fill: url(#linear-gradient-5);
            }

            .cls-7 {
            opacity: 0.61;
            mix-blend-mode: multiply;
            }

            .cls-8 {
            fill: url(#linear-gradient-6);
            }

            .cls-9 {
            fill: url(#linear-gradient-7);
            }

            .cls-10 {
            fill: url(#linear-gradient-8);
            }

            .cls-11 {
            fill: url(#linear-gradient-9);
            }

            .cls-12 {
            fill: url(#linear-gradient-10);
            }

            .cls-13 {
            fill: url(#linear-gradient-11);
            }

            .cls-14 {
            fill: url(#linear-gradient-14);
            }

            .cls-15 {
            fill: url(#linear-gradient-15);
            }

            .cls-16 {
            fill: url(#linear-gradient-18);
            }
        </style>
        <linearGradient id="linear-gradient" x1="275.91" y1="597.64" x2="275.91" y2="792.29"
            gradientUnits="userSpaceOnUse">
            <stop offset="0" stop-color="#d4b274" />
            <stop offset="0.18" stop-color="#ae9363" />
            <stop offset="0.34" stop-color="#d2b073" />
            <stop offset="0.53" stop-color="#fad084" />
            <stop offset="0.6" stop-color="#d7b16c" />
            <stop offset="0.7" stop-color="#b08e50" />
            <stop offset="0.88" stop-color="#d8b26d" />
            <stop offset="1" stop-color="#f3ca81" />
        </linearGradient>
        <linearGradient id="linear-gradient-2" x1="297.42" y1="597.64" x2="297.42" y2="792.29"
            xlink:href="#linear-gradient" />
        <linearGradient id="linear-gradient-3" x1="68.99" y1="657.17" x2="453.14" y2="657.17"
            xlink:href="#linear-gradient" />
        <linearGradient id="linear-gradient-4" x1="563.61" y1="500.15" x2="260.96" y2="500.15"
            gradientTransform="translate(-39.78 44.72) rotate(-19.03)" xlink:href="#linear-gradient" />
        <linearGradient id="linear-gradient-5" x1="432.76" y1="480.58" x2="130.11" y2="480.58"
            gradientTransform="translate(9.62 -13.44) rotate(2.1)" xlink:href="#linear-gradient" />
        <linearGradient id="linear-gradient-6" x1="497.51" y1="607.35" x2="497.51" y2="660.4"
            gradientUnits="userSpaceOnUse">
            <stop offset="0" stop-color="#aa9161" />
            <stop offset="0.37" stop-color="#b39660" />
            <stop offset="0.95" stop-color="#caa45f" />
            <stop offset="1" stop-color="#cca55f" />
        </linearGradient>
        <linearGradient id="linear-gradient-7" x1="555.58" y1="607.35" x2="555.58" y2="660.4"
            xlink:href="#linear-gradient-6" />
        <linearGradient id="linear-gradient-8" x1="633" y1="607.35" x2="633" y2="660.4"
            xlink:href="#linear-gradient-6" />
        <linearGradient id="linear-gradient-9" x1="690.45" y1="607.35" x2="690.45" y2="660.4"
            xlink:href="#linear-gradient-6" />
        <linearGradient id="linear-gradient-10" x1="745.9" y1="607.35" x2="745.9" y2="660.4"
            xlink:href="#linear-gradient-6" />
        <linearGradient id="linear-gradient-11" x1="491.77" y1="724.51" x2="1128.74" y2="724.51"
            xlink:href="#linear-gradient" />
        <linearGradient id="linear-gradient-14" x1="491.77" y1="729.62" x2="1128.74" y2="729.62"
            xlink:href="#linear-gradient" />
        <linearGradient id="linear-gradient-15" x1="491.77" y1="725.46" x2="1128.74" y2="725.46"
            xlink:href="#linear-gradient" />
        <linearGradient id="linear-gradient-18" x1="491.77" y1="711.63" x2="1128.74" y2="711.63"
            xlink:href="#linear-gradient" />
    </defs>
    <title>Untitled-2</title>
    <g class="cls-1">
        <g id="Layer_1" data-name="Layer 1">
            <path class="cls-2"
                d="M319.52,596H188.69v20.94H319.52a33.14,33.14,0,1,1,0,66.28H254.74V639.56H188.69V660.5h45.12v22.67H232.3a54.08,54.08,0,1,0,0,108.16h54.08V704.11h33.14a54.08,54.08,0,1,0,0-108.16ZM265.44,770.39h-10.7V709.92H233.81v60.47H232.3a33.14,33.14,0,1,1,0-66.28h33.14Z"
                transform="translate(-58.22 -404.73)" />
            <path class="cls-3" d="M286.38,660.5h32.56a10.47,10.47,0,0,0,0-20.94h-53.5v37.8h20.94Z"
                transform="translate(-58.22 -404.73)" />
            <path class="cls-4"
                d="M97.65,794.94c-16-27-24.27-58.74-24.07-90.69-.07-2,0-4,.13-6l.28-6c.44-4,.66-8,1.3-12l.88-5.95c.31-2,.77-3.94,1.14-5.92.71-4,1.78-7.84,2.76-11.74.45-2,1.14-3.86,1.7-5.8s1.12-3.88,1.85-5.76c1.42-3.77,2.73-7.59,4.4-11.27a189,189,0,0,1,10.85-21.68,182.6,182.6,0,0,1,29.8-38.31,193.39,193.39,0,0,1,18.39-16c3.31-2.37,6.51-4.89,10-7.06,1.71-1.11,3.4-2.26,5.12-3.34l5.26-3.12c1.74-1.07,3.54-2,5.35-3l5.43-2.83c3.73-1.65,7.37-3.53,11.19-5l5.69-2.28,5.79-2c3.83-1.42,7.81-2.39,11.72-3.58a189.8,189.8,0,0,1,97,0c3.91,1.19,7.89,2.16,11.72,3.58l5.8,2,5.68,2.28c3.83,1.43,7.46,3.32,11.19,5,3.61,1.9,7.3,3.66,10.79,5.78l5.27,3.1c1.73,1.08,3.42,2.23,5.13,3.34,3.45,2.16,6.67,4.68,10,7a189.37,189.37,0,0,1,48.16,54.39,189.84,189.84,0,0,1,10.85,21.68c1.66,3.68,3,7.5,4.39,11.28.73,1.88,1.25,3.83,1.86,5.75s1.25,3.83,1.7,5.8a186.34,186.34,0,0,1,6.49,47.56c.19,32-8.14,63.74-24.1,90.69,12.51-28.67,18.12-59.87,15.65-90.37a180.59,180.59,0,0,0-93.38-146,177.32,177.32,0,0,0-41.46-16.39,179.37,179.37,0,0,0-88.43,0,179.35,179.35,0,0,0-41.48,16.37C149,572.67,126.72,594,110.28,619.19A182.14,182.14,0,0,0,82,704.57C79.52,735.07,85.13,766.28,97.65,794.94Z"
                transform="translate(-58.22 -404.73)" />
            <path class="cls-5"
                d="M69.44,549l-.58.35a3,3,0,0,0-.48.34h0a8.57,8.57,0,0,0-.17,14.59l-.35,7.94L58.22,589.5l27,1.18L77,572.25l.35-8.09a6.8,6.8,0,0,0,1.13-.73A8.49,8.49,0,0,0,82,556.92a8.59,8.59,0,0,0-4-7.6l3.2-73.2L72.68,475Z"
                transform="translate(-58.22 -404.73)" />
            <path class="cls-6"
                d="M454.58,482.21l-35-14.31-154.8-63.17L72,474.65l8.51,4.46,22.07,11.59,30.93,16.24,9.52,5-.08,3.57-.57,28.9A243,243,0,0,1,359.31,533a245.4,245.4,0,0,1,22.3,11.16l.53-27.52Z"
                transform="translate(-58.22 -404.73)" />
            <g class="cls-7">
                <path
                    d="M472,660.86v-1.44h2q3.33,0,4.74-2.14.85-1.28.85-5.75v-34q0-4.92-1.09-6.17a5.7,5.7,0,0,0-4.5-1.71h-2v-1.44h21.44q11.81,0,18,2.68a21.42,21.42,0,0,1,9.9,8.94A27.54,27.54,0,0,1,525,634.25q0,11-6.68,18.37-7.5,8.24-22.84,8.24Zm15-3.81a40.08,40.08,0,0,0,8.27,1.09,19.62,19.62,0,0,0,15-6.34q5.94-6.33,5.94-17.16t-5.94-17.21a20.05,20.05,0,0,0-15.27-6.3,33,33,0,0,0-8,1.13Z"
                    transform="translate(-58.22 -404.73)" />
                <path
                    d="M566,609.62v-1.44h18.65v1.44h-2a5.35,5.35,0,0,0-4.78,2.6c-.55.8-.82,2.67-.82,5.59v21.37q0,7.92-1.57,12.29a15.4,15.4,0,0,1-6.18,7.5q-4.61,3.13-12.53,3.13-8.61,0-13.09-3a16.27,16.27,0,0,1-6.33-8q-1.25-3.47-1.24-13V617.5c0-3.23-.45-5.36-1.34-6.37a5.51,5.51,0,0,0-4.33-1.51h-2v-1.44h22.76v1.44h-2c-2.18,0-3.73.68-4.66,2.06q-1,1.4-1,5.82v23a49.79,49.79,0,0,0,.56,7,15.14,15.14,0,0,0,2,6.18,11,11,0,0,0,4.25,3.65,14.7,14.7,0,0,0,6.82,1.44,18.75,18.75,0,0,0,9.25-2.26,12.11,12.11,0,0,0,5.57-5.76q1.5-3.53,1.5-11.91V617.5c0-3.28-.37-5.34-1.09-6.17a5.71,5.71,0,0,0-4.51-1.71Z"
                    transform="translate(-58.22 -404.73)" />
                <path
                    d="M621.76,632.62h24.48V617.54a17.5,17.5,0,0,0-.51-5.32,3.48,3.48,0,0,0-1.63-1.67,7.15,7.15,0,0,0-3.54-.93H638.7v-1.44h22.53v1.44h-1.86a7.44,7.44,0,0,0-3.54.89,3.27,3.27,0,0,0-1.69,1.89,18.53,18.53,0,0,0-.45,5.14v34a17.35,17.35,0,0,0,.51,5.29,3.56,3.56,0,0,0,1.59,1.67,7.38,7.38,0,0,0,3.58.93h1.86v1.44H638.7v-1.44h1.86a5.63,5.63,0,0,0,4.71-1.9c.64-.83,1-2.83,1-6v-16H621.76v16a17.35,17.35,0,0,0,.51,5.29,3.52,3.52,0,0,0,1.63,1.67,7.15,7.15,0,0,0,3.54.93h1.9v1.44H606.77v-1.44h1.86c2.18,0,3.76-.64,4.74-1.9.62-.83.94-2.83.94-6v-34a17.5,17.5,0,0,0-.51-5.32,3.52,3.52,0,0,0-1.59-1.67,7.38,7.38,0,0,0-3.58-.93h-1.86v-1.44h22.57v1.44h-1.9a7.44,7.44,0,0,0-3.54.89,3.37,3.37,0,0,0-1.67,1.89,17.89,17.89,0,0,0-.47,5.14Z"
                    transform="translate(-58.22 -404.73)" />
                <path
                    d="M692,607a23.87,23.87,0,0,1,17.77,7.79q7.51,7.79,7.52,19.44,0,12-7.58,19.92a25.31,25.31,0,0,1-36.61.2q-7.41-7.73-7.4-20,0-12.54,8.54-20.47A25.24,25.24,0,0,1,692,607Zm-.74,2.83a13.88,13.88,0,0,0-11.34,5.25q-5.32,6.53-5.33,19.11,0,12.9,5.52,19.85a13.63,13.63,0,0,0,11.19,5.28,15.28,15.28,0,0,0,12.25-5.79q4.85-5.78,4.84-18.25,0-13.53-5.32-20.16Q698.75,609.81,691.22,609.81Zm-.12,55.71a4.27,4.27,0,1,1-3.05,1.24A4.14,4.14,0,0,1,691.1,665.52Z"
                    transform="translate(-58.22 -404.73)" />
                <path
                    d="M768.21,607l1.2,17.91h-1.2q-2.41-8.05-6.88-11.58a16.71,16.71,0,0,0-10.72-3.54,16.64,16.64,0,0,0-16.14,11.15,37.83,37.83,0,0,0-2.42,14.49,30.69,30.69,0,0,0,2.29,12.39,17.12,17.12,0,0,0,6.89,8,19.79,19.79,0,0,0,10.51,2.8,18.26,18.26,0,0,0,9-2.19q3.93-2.21,8.62-8.72l1.21.77q-4,7-9.25,10.3a23.42,23.42,0,0,1-12.54,3.26q-13.1,0-20.28-9.71a27.74,27.74,0,0,1-5.36-17,30.26,30.26,0,0,1,3.53-14.48,25.56,25.56,0,0,1,9.73-10.24A26.32,26.32,0,0,1,750,607a24.89,24.89,0,0,1,11.27,2.79,6.08,6.08,0,0,0,2.33.86,2.55,2.55,0,0,0,1.82-.74,6,6,0,0,0,1.44-2.91Z"
                    transform="translate(-58.22 -404.73)" />
            </g>
            <path class="cls-8"
                d="M471,660.86v-1.44h2q3.33,0,4.74-2.14.85-1.28.85-5.75v-34q0-4.92-1.09-6.17a5.7,5.7,0,0,0-4.5-1.71h-2v-1.44h21.44q11.81,0,18,2.68a21.42,21.42,0,0,1,9.9,8.94A27.54,27.54,0,0,1,524,634.25q0,11-6.68,18.37-7.5,8.24-22.84,8.24Zm15-3.81a40.08,40.08,0,0,0,8.27,1.09,19.62,19.62,0,0,0,15-6.34q5.94-6.33,5.94-17.16t-5.94-17.21a20.05,20.05,0,0,0-15.27-6.3,33,33,0,0,0-8,1.13Z"
                transform="translate(-58.22 -404.73)" />
            <path class="cls-9"
                d="M565,609.62v-1.44h18.65v1.44h-2a5.35,5.35,0,0,0-4.78,2.6c-.55.8-.82,2.67-.82,5.59v21.37q0,7.92-1.57,12.29a15.4,15.4,0,0,1-6.18,7.5q-4.61,3.13-12.53,3.13-8.61,0-13.09-3a16.27,16.27,0,0,1-6.33-8q-1.25-3.47-1.24-13V617.5c0-3.23-.45-5.36-1.34-6.37a5.51,5.51,0,0,0-4.33-1.51h-2v-1.44h22.76v1.44h-2c-2.18,0-3.73.68-4.66,2.06q-1,1.4-1,5.82v23a49.79,49.79,0,0,0,.56,7,15.14,15.14,0,0,0,2,6.18,11,11,0,0,0,4.25,3.65,14.7,14.7,0,0,0,6.82,1.44,18.75,18.75,0,0,0,9.25-2.26,12.11,12.11,0,0,0,5.57-5.76q1.5-3.53,1.5-11.91V617.5c0-3.28-.37-5.34-1.09-6.17a5.71,5.71,0,0,0-4.51-1.71Z"
                transform="translate(-58.22 -404.73)" />
            <path class="cls-10"
                d="M620.76,632.62h24.48V617.54a17.5,17.5,0,0,0-.51-5.32,3.48,3.48,0,0,0-1.63-1.67,7.15,7.15,0,0,0-3.54-.93H637.7v-1.44h22.53v1.44h-1.86a7.44,7.44,0,0,0-3.54.89,3.27,3.27,0,0,0-1.69,1.89,18.53,18.53,0,0,0-.45,5.14v34a17.35,17.35,0,0,0,.51,5.29,3.56,3.56,0,0,0,1.59,1.67,7.38,7.38,0,0,0,3.58.93h1.86v1.44H637.7v-1.44h1.86a5.63,5.63,0,0,0,4.71-1.9c.64-.83,1-2.83,1-6v-16H620.76v16a17.35,17.35,0,0,0,.51,5.29,3.52,3.52,0,0,0,1.63,1.67,7.15,7.15,0,0,0,3.54.93h1.9v1.44H605.77v-1.44h1.86c2.18,0,3.76-.64,4.74-1.9.62-.83.94-2.83.94-6v-34a17.5,17.5,0,0,0-.51-5.32,3.52,3.52,0,0,0-1.59-1.67,7.38,7.38,0,0,0-3.58-.93h-1.86v-1.44h22.57v1.44h-1.9a7.44,7.44,0,0,0-3.54.89,3.37,3.37,0,0,0-1.67,1.89,17.89,17.89,0,0,0-.47,5.14Z"
                transform="translate(-58.22 -404.73)" />
            <path class="cls-11"
                d="M691,607a23.87,23.87,0,0,1,17.77,7.79q7.51,7.79,7.52,19.44,0,12-7.58,19.92a25.31,25.31,0,0,1-36.61.2q-7.41-7.73-7.4-20,0-12.54,8.54-20.47A25.24,25.24,0,0,1,691,607Zm-.74,2.83a13.88,13.88,0,0,0-11.34,5.25q-5.32,6.53-5.33,19.11,0,12.9,5.52,19.85a13.63,13.63,0,0,0,11.19,5.28,15.28,15.28,0,0,0,12.25-5.79q4.85-5.78,4.84-18.25,0-13.53-5.32-20.16Q697.75,609.81,690.22,609.81Zm-.12,55.71a4.27,4.27,0,1,1-3.05,1.24A4.14,4.14,0,0,1,690.1,665.52Z"
                transform="translate(-58.22 -404.73)" />
            <path class="cls-12"
                d="M767.21,607l1.2,17.91h-1.2q-2.41-8.05-6.88-11.58a16.71,16.71,0,0,0-10.72-3.54,16.64,16.64,0,0,0-16.14,11.15,37.83,37.83,0,0,0-2.42,14.49,30.69,30.69,0,0,0,2.29,12.39,17.12,17.12,0,0,0,6.89,8,19.79,19.79,0,0,0,10.51,2.8,18.26,18.26,0,0,0,9-2.19q3.93-2.21,8.62-8.72l1.21.77q-4,7-9.25,10.3a23.42,23.42,0,0,1-12.54,3.26q-13.1,0-20.28-9.71a27.74,27.74,0,0,1-5.36-17,30.26,30.26,0,0,1,3.53-14.48,25.56,25.56,0,0,1,9.73-10.24A26.32,26.32,0,0,1,749,607a24.89,24.89,0,0,1,11.27,2.79,6.08,6.08,0,0,0,2.33.86,2.55,2.55,0,0,0,1.82-.74,6,6,0,0,0,1.44-2.91Z"
                transform="translate(-58.22 -404.73)" />
            <g class="cls-7">
                <path
                    d="M544.18,685v21.94H542q-1.92-7.59-4.25-10.91a16.35,16.35,0,0,0-6.39-5.29q-2.28-1.08-7.95-1.08h-6v62.52q0,6.23.69,7.77a6.09,6.09,0,0,0,2.69,2.72,10.84,10.84,0,0,0,5.47,1.17h2.69V766H486.5v-2.21h2.69a11.17,11.17,0,0,0,5.68-1.26,5.7,5.7,0,0,0,2.45-2.87q.66-1.43.66-7.53V689.64h-5.86q-8.19,0-11.89,3.47Q475,698,473.65,706.92h-2.27V685Z"
                    transform="translate(-58.22 -404.73)" />
                <path
                    d="M581.12,729.09V751.8q0,6.59.8,8.28a5.93,5.93,0,0,0,2.84,2.72q2,1,7.59,1V766H550.87v-2.21q5.63,0,7.62-1.05a6,6,0,0,0,2.81-2.72q.81-1.66.81-8.25V699.21c0-4.39-.27-7.14-.81-8.28a5.84,5.84,0,0,0-2.84-2.72q-2-1-7.59-1V685h37.66q14.7,0,21.51,2a21.68,21.68,0,0,1,11.12,7.51,20.11,20.11,0,0,1,4.31,12.82A19.18,19.18,0,0,1,619,722.16q-4.12,3.71-11.54,5.56L627,755.15a41.34,41.34,0,0,0,5.44,6.64,10.14,10.14,0,0,0,5.68,2V766H612.56l-26.12-36.94Zm0-39.74v35.5h3.4q8.31,0,12.44-1.52a12.41,12.41,0,0,0,6.48-5.5q2.35-4,2.36-10.37,0-9.27-4.33-13.69t-14-4.42Z"
                    transform="translate(-58.22 -404.73)" />
                <path
                    d="M681.83,763.82V766H639.45v-2.21h2.69a11.2,11.2,0,0,0,5.68-1.26,5.43,5.43,0,0,0,2.39-2.87q.66-1.43.66-7.53V698.85q0-6.21-.66-7.77a6,6,0,0,0-2.66-2.72,10.72,10.72,0,0,0-5.41-1.17h-2.69V685h42.38v2.21h-2.69a11.17,11.17,0,0,0-5.68,1.26,5.7,5.7,0,0,0-2.45,2.87q-.66,1.42-.66,7.53v53.31q0,6.23.69,7.77a6.09,6.09,0,0,0,2.69,2.72,10.7,10.7,0,0,0,5.41,1.17Z"
                    transform="translate(-58.22 -404.73)" />
                <path
                    d="M718,689.64v33h1.61q7.71,0,11.18-4.84t4.42-14.29h2.27V746H735.2a31.73,31.73,0,0,0-3-11.36c-1.53-3-3.32-4.93-5.35-6s-5-1.52-8.84-1.52V750q0,6.69.57,8.19a4.85,4.85,0,0,0,2.12,2.45,9.91,9.91,0,0,0,5,1h4.84q11.36,0,18.2-5.26t9.83-16h2.21L757.14,766h-70v-2.21h2.69a11.13,11.13,0,0,0,5.67-1.26,5.44,5.44,0,0,0,2.4-2.87q.64-1.43.65-7.53V698.85a42.17,42.17,0,0,0-.3-6.75,5.62,5.62,0,0,0-2.21-3.23,10.22,10.22,0,0,0-6.21-1.68h-2.69V685h67.83v24h-2.27q-1.73-8.79-4.87-12.61a18.13,18.13,0,0,0-8.87-5.62q-3.36-1.08-12.56-1.08Zm2.51-20.44h11.11l9.63,8.73h-2.87l-12.55-4.06-12.08,4.06h-2.81Zm2.15,102.93a9.89,9.89,0,0,1,10,10,9.51,9.51,0,0,1-2.93,7,9.66,9.66,0,0,1-7.05,2.9,9.9,9.9,0,0,1-9.92-9.92,9.66,9.66,0,0,1,2.9-7.06A9.51,9.51,0,0,1,722.65,772.13Z"
                    transform="translate(-58.22 -404.73)" />
                <path
                    d="M769.15,685H811v2.21H808.9q-4.73,0-6.49,1a5.6,5.6,0,0,0-2.51,2.72c-.5,1.16-.75,4-.75,8.67v39.68q0,10.89,1.65,14.41a13.63,13.63,0,0,0,5.41,5.85,17.69,17.69,0,0,0,9.5,2.34,20.43,20.43,0,0,0,11.21-3,18.2,18.2,0,0,0,6.93-8.16q2.29-5.21,2.3-18.11v-33q0-5.45-1.14-7.77a6.77,6.77,0,0,0-2.86-3.23,17,17,0,0,0-7.59-1.38V685h28v2.21h-1.68a10.73,10.73,0,0,0-5.67,1.38,7.79,7.79,0,0,0-3.29,4.12q-.78,1.92-.78,6.88v30.78q0,14.28-1.88,20.62t-9.18,11.65q-7.29,5.32-19.9,5.32-10.51,0-16.26-2.81-7.83-3.82-11.05-9.8t-3.23-16.08V699.57c0-4.67-.26-7.56-.78-8.7a5.8,5.8,0,0,0-2.69-2.72c-1.27-.68-3.62-1-7.05-1Z"
                    transform="translate(-58.22 -404.73)" />
                <path
                    d="M918.33,729.33V751.8q0,6.59.81,8.28A5.91,5.91,0,0,0,922,762.8q2.06,1,7.56,1V766H888.39v-2.21q5.61,0,7.62-1.05a6.09,6.09,0,0,0,2.81-2.72q.81-1.66.81-8.25V699.21c0-4.39-.27-7.14-.81-8.28a5.93,5.93,0,0,0-2.84-2.72c-1.35-.68-3.89-1-7.59-1V685h35.32q17.46,0,25,6.22a19.28,19.28,0,0,1,7.59,15.54,19.9,19.9,0,0,1-4.9,13.51q-4.91,5.61-13.51,7.65Q932.14,729.33,918.33,729.33Zm0-39.69v35c1.32.08,2.31.12,3,.12q7.29,0,11.24-4.33T936.5,707q0-9-3.94-13.21t-11.78-4.19Z"
                    transform="translate(-58.22 -404.73)" />
                <path
                    d="M993.52,727.06v25.1q0,6.23.69,7.77a6.09,6.09,0,0,0,2.69,2.72,10.7,10.7,0,0,0,5.41,1.17H1005V766H962.62v-2.21h2.69a11.17,11.17,0,0,0,5.68-1.26,5.43,5.43,0,0,0,2.39-2.87q.66-1.43.66-7.53V698.85q0-6.21-.66-7.77a6,6,0,0,0-2.66-2.72,10.7,10.7,0,0,0-5.41-1.17h-2.69V685H1005v2.21h-2.69a11.2,11.2,0,0,0-5.68,1.26,5.7,5.7,0,0,0-2.45,2.87q-.66,1.42-.66,7.53V721.8h28.63V698.85q0-6.21-.66-7.77a5.89,5.89,0,0,0-2.69-2.72,10.83,10.83,0,0,0-5.43-1.17h-2.63V685h42.31v2.21h-2.63a11,11,0,0,0-5.68,1.26,5.74,5.74,0,0,0-2.45,2.87c-.43.95-.66,3.46-.66,7.53v53.31c0,4.15.23,6.74.66,7.77a5.94,5.94,0,0,0,2.69,2.72,10.9,10.9,0,0,0,5.44,1.17h2.63V766h-42.31v-2.21h2.63a10.93,10.93,0,0,0,5.67-1.26,5.65,5.65,0,0,0,2.45-2.87q.66-1.43.66-7.53v-25.1Z"
                    transform="translate(-58.22 -404.73)" />
                <path
                    d="M1058.13,685H1100v2.21h-2.09q-4.73,0-6.49,1a5.65,5.65,0,0,0-2.51,2.72c-.49,1.16-.74,4-.74,8.67v39.68q0,10.89,1.64,14.41a13.69,13.69,0,0,0,5.41,5.85,17.72,17.72,0,0,0,9.5,2.34,20.41,20.41,0,0,0,11.21-3,18.14,18.14,0,0,0,6.93-8.16q2.31-5.21,2.31-18.11v-33c0-3.63-.39-6.22-1.14-7.77a6.83,6.83,0,0,0-2.87-3.23,16.94,16.94,0,0,0-7.59-1.38V685h28v2.21h-1.67a10.74,10.74,0,0,0-5.68,1.38,7.79,7.79,0,0,0-3.29,4.12c-.52,1.28-.77,3.57-.77,6.88v30.78q0,14.28-1.89,20.62t-9.17,11.65q-7.3,5.32-19.9,5.32-10.53,0-16.26-2.81-7.83-3.82-11.06-9.8t-3.23-16.08V699.57c0-4.67-.26-7.56-.77-8.7a5.85,5.85,0,0,0-2.69-2.72c-1.28-.68-3.63-1-7.06-1ZM1116,657.31l-19.78,20.74h-5.14l6.93-20.74Z"
                    transform="translate(-58.22 -404.73)" />
            </g>
            <path class="cls-13"
                d="M543.18,684v21.94H541q-1.92-7.59-4.25-10.91a16.35,16.35,0,0,0-6.39-5.29q-2.28-1.08-7.95-1.08h-6v62.52q0,6.23.69,7.77a6.09,6.09,0,0,0,2.69,2.72,10.84,10.84,0,0,0,5.47,1.17h2.69V765H485.5v-2.21h2.69a11.17,11.17,0,0,0,5.68-1.26,5.7,5.7,0,0,0,2.45-2.87q.66-1.43.66-7.53V688.64h-5.86q-8.19,0-11.89,3.47Q474,697,472.65,705.92h-2.27V684Z"
                transform="translate(-58.22 -404.73)" />
            <path class="cls-13"
                d="M580.12,728.09V750.8q0,6.59.8,8.28a5.93,5.93,0,0,0,2.84,2.72q2,1,7.59,1V765H549.87v-2.21q5.63,0,7.62-1.05a6,6,0,0,0,2.81-2.72q.81-1.66.81-8.25V698.21c0-4.39-.27-7.14-.81-8.28a5.84,5.84,0,0,0-2.84-2.72q-2-1-7.59-1V684h37.66q14.7,0,21.51,2a21.68,21.68,0,0,1,11.12,7.51,20.11,20.11,0,0,1,4.31,12.82A19.18,19.18,0,0,1,618,721.16q-4.12,3.71-11.54,5.56L626,754.15a41.34,41.34,0,0,0,5.44,6.64,10.14,10.14,0,0,0,5.68,2V765H611.56l-26.12-36.94Zm0-39.74v35.5h3.4q8.31,0,12.44-1.52a12.41,12.41,0,0,0,6.48-5.5q2.35-4,2.36-10.37,0-9.27-4.33-13.69t-14-4.42Z"
                transform="translate(-58.22 -404.73)" />
            <path class="cls-13"
                d="M680.83,762.82V765H638.45v-2.21h2.69a11.2,11.2,0,0,0,5.68-1.26,5.43,5.43,0,0,0,2.39-2.87q.66-1.43.66-7.53V697.85q0-6.21-.66-7.77a6,6,0,0,0-2.66-2.72,10.72,10.72,0,0,0-5.41-1.17h-2.69V684h42.38v2.21h-2.69a11.17,11.17,0,0,0-5.68,1.26,5.7,5.7,0,0,0-2.45,2.87q-.66,1.42-.66,7.53v53.31q0,6.23.69,7.77a6.09,6.09,0,0,0,2.69,2.72,10.7,10.7,0,0,0,5.41,1.17Z"
                transform="translate(-58.22 -404.73)" />
            <path class="cls-14"
                d="M717,688.64v33h1.61q7.71,0,11.18-4.84t4.42-14.29h2.27V745H734.2a31.73,31.73,0,0,0-3-11.36c-1.53-3-3.32-4.93-5.35-6s-5-1.52-8.84-1.52V749q0,6.69.57,8.19a4.85,4.85,0,0,0,2.12,2.45,9.91,9.91,0,0,0,5,1h4.84q11.36,0,18.2-5.26t9.83-16h2.21L756.14,765h-70v-2.21h2.69a11.13,11.13,0,0,0,5.67-1.26,5.44,5.44,0,0,0,2.4-2.87q.64-1.43.65-7.53V697.85a42.17,42.17,0,0,0-.3-6.75,5.62,5.62,0,0,0-2.21-3.23,10.22,10.22,0,0,0-6.21-1.68h-2.69V684h67.83v24h-2.27q-1.73-8.79-4.87-12.61a18.13,18.13,0,0,0-8.87-5.62q-3.36-1.08-12.56-1.08Zm2.51-20.44h11.11l9.63,8.73h-2.87l-12.55-4.06-12.08,4.06h-2.81Zm2.15,102.93a9.89,9.89,0,0,1,10,10,9.51,9.51,0,0,1-2.93,7,9.66,9.66,0,0,1-7.05,2.9,9.9,9.9,0,0,1-9.92-9.92,9.66,9.66,0,0,1,2.9-7.06A9.51,9.51,0,0,1,721.65,771.13Z"
                transform="translate(-58.22 -404.73)" />
            <path class="cls-15"
                d="M768.15,684H810v2.21H807.9q-4.73,0-6.49,1a5.6,5.6,0,0,0-2.51,2.72c-.5,1.16-.75,4-.75,8.67v39.68q0,10.89,1.65,14.41a13.63,13.63,0,0,0,5.41,5.85,17.69,17.69,0,0,0,9.5,2.34,20.43,20.43,0,0,0,11.21-3,18.2,18.2,0,0,0,6.93-8.16q2.29-5.21,2.3-18.11v-33q0-5.45-1.14-7.77a6.77,6.77,0,0,0-2.86-3.23,17,17,0,0,0-7.59-1.38V684h28v2.21h-1.68a10.73,10.73,0,0,0-5.67,1.38,7.79,7.79,0,0,0-3.29,4.12q-.78,1.92-.78,6.88v30.78q0,14.28-1.88,20.62t-9.18,11.65q-7.29,5.32-19.9,5.32-10.51,0-16.26-2.81-7.83-3.82-11.05-9.8t-3.23-16.08V698.57c0-4.67-.26-7.56-.78-8.7a5.8,5.8,0,0,0-2.69-2.72c-1.27-.68-3.62-1-7.05-1Z"
                transform="translate(-58.22 -404.73)" />
            <path class="cls-13"
                d="M917.33,728.33V750.8q0,6.59.81,8.28A5.91,5.91,0,0,0,921,761.8q2.06,1,7.56,1V765H887.39v-2.21q5.61,0,7.62-1.05a6.09,6.09,0,0,0,2.81-2.72q.81-1.66.81-8.25V698.21c0-4.39-.27-7.14-.81-8.28a5.93,5.93,0,0,0-2.84-2.72c-1.35-.68-3.89-1-7.59-1V684h35.32q17.46,0,25,6.22a19.28,19.28,0,0,1,7.59,15.54,19.9,19.9,0,0,1-4.9,13.51q-4.91,5.61-13.51,7.65Q931.14,728.33,917.33,728.33Zm0-39.69v35c1.32.08,2.31.12,3,.12q7.29,0,11.24-4.33T935.5,706q0-9-3.94-13.21t-11.78-4.19Z"
                transform="translate(-58.22 -404.73)" />
            <path class="cls-13"
                d="M992.52,726.06v25.1q0,6.23.69,7.77a6.09,6.09,0,0,0,2.69,2.72,10.7,10.7,0,0,0,5.41,1.17H1004V765H961.62v-2.21h2.69a11.17,11.17,0,0,0,5.68-1.26,5.43,5.43,0,0,0,2.39-2.87q.66-1.43.66-7.53V697.85q0-6.21-.66-7.77a6,6,0,0,0-2.66-2.72,10.7,10.7,0,0,0-5.41-1.17h-2.69V684H1004v2.21h-2.69a11.2,11.2,0,0,0-5.68,1.26,5.7,5.7,0,0,0-2.45,2.87q-.66,1.42-.66,7.53V720.8h28.63V697.85q0-6.21-.66-7.77a5.89,5.89,0,0,0-2.69-2.72,10.83,10.83,0,0,0-5.43-1.17h-2.63V684h42.31v2.21h-2.63a11,11,0,0,0-5.68,1.26,5.74,5.74,0,0,0-2.45,2.87c-.43.95-.66,3.46-.66,7.53v53.31c0,4.15.23,6.74.66,7.77a5.94,5.94,0,0,0,2.69,2.72,10.9,10.9,0,0,0,5.44,1.17h2.63V765h-42.31v-2.21h2.63a10.93,10.93,0,0,0,5.67-1.26,5.65,5.65,0,0,0,2.45-2.87q.66-1.43.66-7.53v-25.1Z"
                transform="translate(-58.22 -404.73)" />
            <path class="cls-16"
                d="M1057.13,684H1099v2.21h-2.09q-4.73,0-6.49,1a5.65,5.65,0,0,0-2.51,2.72c-.49,1.16-.74,4-.74,8.67v39.68q0,10.89,1.64,14.41a13.69,13.69,0,0,0,5.41,5.85,17.72,17.72,0,0,0,9.5,2.34,20.41,20.41,0,0,0,11.21-3,18.14,18.14,0,0,0,6.93-8.16q2.31-5.21,2.31-18.11v-33c0-3.63-.39-6.22-1.14-7.77a6.83,6.83,0,0,0-2.87-3.23,16.94,16.94,0,0,0-7.59-1.38V684h28v2.21h-1.67a10.74,10.74,0,0,0-5.68,1.38,7.79,7.79,0,0,0-3.29,4.12c-.52,1.28-.77,3.57-.77,6.88v30.78q0,14.28-1.89,20.62t-9.17,11.65q-7.3,5.32-19.9,5.32-10.53,0-16.26-2.81-7.83-3.82-11.06-9.8t-3.23-16.08V698.57c0-4.67-.26-7.56-.77-8.7a5.85,5.85,0,0,0-2.69-2.72c-1.28-.68-3.63-1-7.06-1ZM1115,656.31l-19.78,20.74h-5.14l6.93-20.74Z"
                transform="translate(-58.22 -404.73)" />
        </g>
    </g>
</svg>