<svg xmlns="http://www.w3.org/2000/svg" xmlns:xlink="http://www.w3.org/1999/xlink"
    viewBox="0 0 840.38 821.92">
    <defs>
        <style>
            .cls-1 {
            isolation: isolate;
            }

            .cls-2 {
            fill: url(#linear-gradient);
            }

            .cls-3 {
            fill: url(#linear-gradient-2);
            }

            .cls-4 {
            fill: url(#linear-gradient-3);
            }

            .cls-5 {
            fill: url(#linear-gradient-4);
            }

            .cls-6 {
            fill: url(#linear-gradient-5);
            }

            .cls-7 {
            opacity: 0.61;
            mix-blend-mode: multiply;
            }

            .cls-8 {
            fill: url(#linear-gradient-6);
            }

            .cls-9 {
            fill: url(#linear-gradient-7);
            }

            .cls-10 {
            fill: url(#linear-gradient-8);
            }

            .cls-11 {
            fill: url(#linear-gradient-9);
            }

            .cls-12 {
            fill: url(#linear-gradient-10);
            }

            .cls-13 {
            fill: url(#linear-gradient-11);
            }

            .cls-14 {
            fill: url(#linear-gradient-14);
            }

            .cls-15 {
            fill: url(#linear-gradient-15);
            }

            .cls-16 {
            fill: url(#linear-gradient-18);
            }
        </style>
        <linearGradient id="linear-gradient" x1="623.83" y1="430.49" x2="623.83" y2="674.27"
            gradientUnits="userSpaceOnUse">
            <stop offset="0" stop-color="#d4b274" />
            <stop offset="0.18" stop-color="#ae9363" />
            <stop offset="0.34" stop-color="#d2b073" />
            <stop offset="0.53" stop-color="#fad084" />
            <stop offset="0.6" stop-color="#d7b16c" />
            <stop offset="0.7" stop-color="#b08e50" />
            <stop offset="0.88" stop-color="#d8b26d" />
            <stop offset="1" stop-color="#f3ca81" />
        </linearGradient>
        <linearGradient id="linear-gradient-2" x1="650.77" y1="430.49" x2="650.77" y2="674.27"
            xlink:href="#linear-gradient" />
        <linearGradient id="linear-gradient-3" x1="364.67" y1="505.04" x2="845.8" y2="505.04"
            xlink:href="#linear-gradient" />
        <linearGradient id="linear-gradient-4" x1="1059.47" y1="423.88" x2="680.42" y2="423.88"
            gradientTransform="translate(-39.78 44.72) rotate(-19.03)" xlink:href="#linear-gradient" />
        <linearGradient id="linear-gradient-5" x1="810.75" y1="270.41" x2="431.69" y2="270.41"
            gradientTransform="translate(9.62 -13.44) rotate(2.1)" xlink:href="#linear-gradient" />
        <linearGradient id="linear-gradient-6" x1="445.61" y1="752.78" x2="445.61" y2="819.22"
            gradientUnits="userSpaceOnUse">
            <stop offset="0" stop-color="#aa9161" />
            <stop offset="0.37" stop-color="#b39660" />
            <stop offset="0.95" stop-color="#caa45f" />
            <stop offset="1" stop-color="#cca55f" />
        </linearGradient>
        <linearGradient id="linear-gradient-7" x1="518.34" y1="752.78" x2="518.34" y2="819.22"
            xlink:href="#linear-gradient-6" />
        <linearGradient id="linear-gradient-8" x1="615.3" y1="752.78" x2="615.3" y2="819.22"
            xlink:href="#linear-gradient-6" />
        <linearGradient id="linear-gradient-9" x1="687.26" y1="752.78" x2="687.26" y2="819.22"
            xlink:href="#linear-gradient-6" />
        <linearGradient id="linear-gradient-10" x1="756.71" y1="752.78" x2="756.71" y2="819.22"
            xlink:href="#linear-gradient-6" />
        <linearGradient id="linear-gradient-11" x1="206.49" y1="926.48" x2="1004.27" y2="926.48"
            xlink:href="#linear-gradient" />
        <linearGradient id="linear-gradient-14" x1="206.49" y1="932.88" x2="1004.27" y2="932.88"
            xlink:href="#linear-gradient" />
        <linearGradient id="linear-gradient-15" x1="206.49" y1="927.68" x2="1004.27" y2="927.68"
            xlink:href="#linear-gradient" />
        <linearGradient id="linear-gradient-18" x1="206.49" y1="910.35" x2="1004.27" y2="910.35"
            xlink:href="#linear-gradient" />
    </defs>
    <title>Untitled-2a</title>
    <g class="cls-1">
        <g id="Layer_1" data-name="Layer 1">
            <path class="cls-2"
                d="M678.45,428.37H514.59v26.22H678.45a41.51,41.51,0,0,1,0,83H597.32V483H514.59v26.22H571.1v28.4h-1.89a67.73,67.73,0,0,0,0,135.46h67.73V563.83h41.51a67.73,67.73,0,0,0,0-135.46ZM610.72,646.85h-13.4V571.11H571.1v75.74h-1.89a41.51,41.51,0,0,1,0-83h41.51Z"
                transform="translate(-179.7 -188.88)" />
            <path class="cls-3" d="M636.94,509.21h40.78a13.11,13.11,0,1,0,0-26.22h-67v47.34h26.22Z"
                transform="translate(-179.7 -188.88)" />
            <path class="cls-4"
                d="M400.57,677.59c-20-33.76-30.4-73.57-30.16-113.58-.08-2.51,0-5,.17-7.51l.36-7.51c.55-5,.82-10,1.62-15l1.11-7.46c.38-2.49.95-4.94,1.43-7.41.88-5,2.22-9.82,3.45-14.71.56-2.47,1.42-4.84,2.12-7.26s1.41-4.86,2.33-7.21c1.77-4.73,3.42-9.52,5.5-14.13a238.81,238.81,0,0,1,13.59-27.15,228.93,228.93,0,0,1,37.33-48,241.79,241.79,0,0,1,23-20.07c4.14-3,8.15-6.13,12.48-8.84,2.13-1.4,4.25-2.83,6.41-4.19l6.59-3.9c2.18-1.34,4.43-2.55,6.7-3.72l6.8-3.54c4.67-2.07,9.22-4.43,14-6.23l7.12-2.86,7.25-2.51c4.81-1.78,9.79-3,14.69-4.48a237.74,237.74,0,0,1,121.48,0c4.89,1.49,9.88,2.7,14.68,4.49l7.25,2.51,7.12,2.85c4.79,1.8,9.35,4.16,14,6.23,4.52,2.38,9.14,4.58,13.51,7.23l6.6,3.89c2.17,1.36,4.28,2.79,6.42,4.18,4.33,2.71,8.35,5.87,12.5,8.83a236.69,236.69,0,0,1,60.33,68.11A239.57,239.57,0,0,1,822,475.84c2.09,4.61,3.73,9.4,5.5,14.13.91,2.36,1.57,4.8,2.34,7.21s1.56,4.79,2.12,7.26A233.38,233.38,0,0,1,840.08,564c.23,40-10.19,79.83-30.18,113.58,15.67-35.9,22.69-75,19.59-113.18a228.05,228.05,0,0,0-35.44-106.92c-20.56-31.56-48.62-58.11-81.51-76A222.14,222.14,0,0,0,660.61,361a224.86,224.86,0,0,0-110.75,0,224.56,224.56,0,0,0-52,20.51c-33,17.72-60.92,44.46-81.52,76a228.24,228.24,0,0,0-35.44,106.94C377.86,602.61,384.88,641.7,400.57,677.59Z"
                transform="translate(-179.7 -188.88)" />
            <path class="cls-5"
                d="M365.24,369.5c-.27.15-.49.28-.73.44a3.59,3.59,0,0,0-.6.42h0a10.74,10.74,0,0,0-.22,18.28l-.43,9.95-12.07,21.69L385,421.76l-10.3-23.07.44-10.14a8.47,8.47,0,0,0,1.41-.91A10.72,10.72,0,0,0,376,370l4-91.69-10.71-1.42Z"
                transform="translate(-179.7 -188.88)" />
            <path class="cls-6"
                d="M847.61,285.91,803.74,268,609.85,188.88,368.44,276.44,379.1,282l27.64,14.52,38.74,20.33,11.93,6.26-.1,4.48-.72,36.2a304.3,304.3,0,0,1,271.69-14.28,305.72,305.72,0,0,1,27.93,14l.66-34.47Z"
                transform="translate(-179.7 -188.88)" />
            <g class="cls-7">
                <path
                    d="M413.38,819.79V818h2.48q4.18,0,5.93-2.67c.72-1.07,1.07-3.47,1.07-7.21V765.5q0-6.18-1.36-7.74a7.12,7.12,0,0,0-5.64-2.14h-2.48v-1.8h26.85q14.79,0,22.51,3.36a26.73,26.73,0,0,1,12.4,11.19,34.51,34.51,0,0,1,4.7,18.1q0,13.75-8.37,23-9.39,10.31-28.61,10.31ZM432.21,815a49.54,49.54,0,0,0,10.36,1.37,24.63,24.63,0,0,0,18.73-7.93q7.44-7.94,7.44-21.51T461.3,765.4q-7.44-7.89-19.12-7.88a41.31,41.31,0,0,0-10,1.41Z"
                    transform="translate(-179.7 -188.88)" />
                <path
                    d="M531.16,755.62v-1.8h23.36v1.8H552a6.72,6.72,0,0,0-6,3.26c-.68,1-1,3.34-1,7v26.76q0,9.93-2,15.4a19.28,19.28,0,0,1-7.74,9.39q-5.76,3.92-15.69,3.92-10.8,0-16.39-3.75a20.24,20.24,0,0,1-7.93-10.07q-1.56-4.32-1.56-16.25V765.5q0-6.09-1.68-8t-5.42-1.9h-2.48v-1.8h28.51v1.8h-2.53c-2.73,0-4.67.86-5.84,2.58q-1.21,1.75-1.22,7.3v28.75a63.58,63.58,0,0,0,.71,8.81,18.8,18.8,0,0,0,2.55,7.73,13.86,13.86,0,0,0,5.33,4.57,18.41,18.41,0,0,0,8.54,1.8,23.58,23.58,0,0,0,11.58-2.82,15.16,15.16,0,0,0,7-7.22q1.88-4.41,1.87-14.91V765.5q0-6.18-1.36-7.74a7.16,7.16,0,0,0-5.65-2.14Z"
                    transform="translate(-179.7 -188.88)" />
                <path
                    d="M601,784.42h30.65V765.55q0-5.07-.63-6.67a4.37,4.37,0,0,0-2-2.09,8.91,8.91,0,0,0-4.42-1.17h-2.34v-1.8h28.22v1.8h-2.33a9.2,9.2,0,0,0-4.43,1.12,4.06,4.06,0,0,0-2.12,2.36,23.55,23.55,0,0,0-.56,6.45v42.56c0,3.35.21,5.55.63,6.62a4.39,4.39,0,0,0,2,2.09,9.22,9.22,0,0,0,4.48,1.17h2.33v1.8H622.19V818h2.34q4,0,5.88-2.38,1.22-1.56,1.22-7.5V788H601v20.09c0,3.35.21,5.55.63,6.62a4.39,4.39,0,0,0,2,2.09,9,9,0,0,0,4.43,1.17h2.39v1.8H582.2V818h2.34q4.08,0,5.93-2.38,1.17-1.56,1.17-7.5V765.55q0-5.07-.63-6.67a4.39,4.39,0,0,0-2-2.09,9.21,9.21,0,0,0-4.47-1.17H582.2v-1.8h28.27v1.8h-2.39a9.25,9.25,0,0,0-4.43,1.12,4.22,4.22,0,0,0-2.09,2.36,22.51,22.51,0,0,0-.58,6.45Z"
                    transform="translate(-179.7 -188.88)" />
                <path
                    d="M688.89,752.31q12.86,0,22.26,9.76t9.42,24.35q0,15-9.49,25a31.72,31.72,0,0,1-45.86.25q-9.27-9.69-9.26-25.06,0-15.7,10.7-25.64A31.57,31.57,0,0,1,688.89,752.31Zm-.92,3.55a17.42,17.42,0,0,0-14.21,6.57q-6.66,8.18-6.66,23.94,0,16.15,6.91,24.86a17.06,17.06,0,0,0,14,6.62,19.16,19.16,0,0,0,15.35-7.25q6.06-7.26,6-22.87,0-16.93-6.66-25.25Q697.41,755.87,688,755.86Zm-.15,69.77a5.2,5.2,0,0,1,3.85,1.58,5.27,5.27,0,0,1,1.55,3.82,5.4,5.4,0,1,1-9.22-3.84A5.25,5.25,0,0,1,687.82,825.63Z"
                    transform="translate(-179.7 -188.88)" />
                <path
                    d="M784.4,752.31l1.51,22.43H784.4q-3-10.07-8.61-14.5a21,21,0,0,0-13.43-4.43,21.85,21.85,0,0,0-11.87,3.34q-5.31,3.33-8.35,10.63t-3,18.14A38.56,38.56,0,0,0,742,803.44a21.55,21.55,0,0,0,8.64,10.08,24.87,24.87,0,0,0,13.16,3.5,22.82,22.82,0,0,0,11.33-2.75q4.92-2.74,10.81-10.92l1.5,1q-5,8.8-11.58,12.89a29.25,29.25,0,0,1-15.71,4.09q-16.39,0-25.4-12.16A34.83,34.83,0,0,1,728,787.83a37.76,37.76,0,0,1,4.43-18.15,32,32,0,0,1,12.18-12.82,33,33,0,0,1,17-4.55,31.14,31.14,0,0,1,14.11,3.5,7.57,7.57,0,0,0,2.92,1.08,3.18,3.18,0,0,0,2.28-.93,7.47,7.47,0,0,0,1.8-3.65Z"
                    transform="translate(-179.7 -188.88)" />
            </g>
            <path class="cls-8"
                d="M412.38,819.79V818h2.48q4.18,0,5.93-2.67c.72-1.07,1.07-3.47,1.07-7.21V765.5q0-6.18-1.36-7.74a7.12,7.12,0,0,0-5.64-2.14h-2.48v-1.8h26.85q14.79,0,22.51,3.36a26.73,26.73,0,0,1,12.4,11.19,34.51,34.51,0,0,1,4.7,18.1q0,13.75-8.37,23-9.39,10.31-28.61,10.31ZM431.21,815a49.54,49.54,0,0,0,10.36,1.37,24.63,24.63,0,0,0,18.73-7.93q7.44-7.94,7.44-21.51T460.3,765.4q-7.44-7.89-19.12-7.88a41.31,41.31,0,0,0-10,1.41Z"
                transform="translate(-179.7 -188.88)" />
            <path class="cls-9"
                d="M530.16,755.62v-1.8h23.36v1.8H551a6.72,6.72,0,0,0-6,3.26c-.68,1-1,3.34-1,7v26.76q0,9.93-2,15.4a19.28,19.28,0,0,1-7.74,9.39q-5.76,3.92-15.69,3.92-10.8,0-16.39-3.75a20.24,20.24,0,0,1-7.93-10.07q-1.56-4.32-1.56-16.25V765.5q0-6.09-1.68-8t-5.42-1.9h-2.48v-1.8h28.51v1.8h-2.53c-2.73,0-4.67.86-5.84,2.58q-1.21,1.75-1.22,7.3v28.75a63.58,63.58,0,0,0,.71,8.81,18.8,18.8,0,0,0,2.55,7.73,13.86,13.86,0,0,0,5.33,4.57,18.41,18.41,0,0,0,8.54,1.8,23.58,23.58,0,0,0,11.58-2.82,15.16,15.16,0,0,0,7-7.22q1.88-4.41,1.87-14.91V765.5q0-6.18-1.36-7.74a7.16,7.16,0,0,0-5.65-2.14Z"
                transform="translate(-179.7 -188.88)" />
            <path class="cls-10"
                d="M600,784.42h30.65V765.55q0-5.07-.63-6.67a4.37,4.37,0,0,0-2-2.09,8.91,8.91,0,0,0-4.42-1.17h-2.34v-1.8h28.22v1.8h-2.33a9.2,9.2,0,0,0-4.43,1.12,4.06,4.06,0,0,0-2.12,2.36,23.55,23.55,0,0,0-.56,6.45v42.56c0,3.35.21,5.55.63,6.62a4.39,4.39,0,0,0,2,2.09,9.22,9.22,0,0,0,4.48,1.17h2.33v1.8H621.19V818h2.34q4,0,5.88-2.38,1.22-1.56,1.22-7.5V788H600v20.09c0,3.35.21,5.55.63,6.62a4.39,4.39,0,0,0,2,2.09,9,9,0,0,0,4.43,1.17h2.39v1.8H581.2V818h2.34q4.08,0,5.93-2.38,1.17-1.56,1.17-7.5V765.55q0-5.07-.63-6.67a4.39,4.39,0,0,0-2-2.09,9.21,9.21,0,0,0-4.47-1.17H581.2v-1.8h28.27v1.8h-2.39a9.25,9.25,0,0,0-4.43,1.12,4.22,4.22,0,0,0-2.09,2.36,22.51,22.51,0,0,0-.58,6.45Z"
                transform="translate(-179.7 -188.88)" />
            <path class="cls-11"
                d="M687.89,752.31q12.86,0,22.26,9.76t9.42,24.35q0,15-9.49,25a31.72,31.72,0,0,1-45.86.25q-9.27-9.69-9.26-25.06,0-15.7,10.7-25.64A31.57,31.57,0,0,1,687.89,752.31Zm-.92,3.55a17.42,17.42,0,0,0-14.21,6.57q-6.66,8.18-6.66,23.94,0,16.15,6.91,24.86a17.06,17.06,0,0,0,14,6.62,19.16,19.16,0,0,0,15.35-7.25q6.06-7.26,6-22.87,0-16.93-6.66-25.25Q696.41,755.87,687,755.86Zm-.15,69.77a5.2,5.2,0,0,1,3.85,1.58,5.27,5.27,0,0,1,1.55,3.82,5.4,5.4,0,1,1-9.22-3.84A5.25,5.25,0,0,1,686.82,825.63Z"
                transform="translate(-179.7 -188.88)" />
            <path class="cls-12"
                d="M783.4,752.31l1.51,22.43H783.4q-3-10.07-8.61-14.5a21,21,0,0,0-13.43-4.43,21.85,21.85,0,0,0-11.87,3.34q-5.31,3.33-8.35,10.63t-3,18.14A38.56,38.56,0,0,0,741,803.44a21.55,21.55,0,0,0,8.64,10.08,24.87,24.87,0,0,0,13.16,3.5,22.82,22.82,0,0,0,11.33-2.75q4.92-2.74,10.81-10.92l1.5,1q-5,8.8-11.58,12.89a29.25,29.25,0,0,1-15.71,4.09q-16.39,0-25.4-12.16A34.83,34.83,0,0,1,727,787.83a37.76,37.76,0,0,1,4.43-18.15,32,32,0,0,1,12.18-12.82,33,33,0,0,1,17-4.55,31.14,31.14,0,0,1,14.11,3.5,7.57,7.57,0,0,0,2.92,1.08,3.18,3.18,0,0,0,2.28-.93,7.47,7.47,0,0,0,1.8-3.65Z"
                transform="translate(-179.7 -188.88)" />
            <g class="cls-7">
                <path
                    d="M271.88,876.73V904.2h-2.69q-2.4-9.51-5.32-13.66a20.41,20.41,0,0,0-8-6.63q-2.84-1.35-10-1.35h-7.56v78.31c0,5.19.28,8.43.86,9.73a7.65,7.65,0,0,0,3.36,3.4,13.59,13.59,0,0,0,6.85,1.46h3.37v2.77H199.64v-2.77H203a14,14,0,0,0,7.11-1.57,7.13,7.13,0,0,0,3.07-3.59q.83-1.8.83-9.43V882.56h-7.34q-10.26,0-14.9,4.35-6.51,6.06-8.23,17.29H180.7V876.73Z"
                    transform="translate(-179.7 -188.88)" />
                <path
                    d="M318.14,932v28.45q0,8.24,1,10.36a7.33,7.33,0,0,0,3.55,3.41q2.55,1.27,9.51,1.27v2.77h-52v-2.77c4.69,0,7.87-.43,9.54-1.31a7.65,7.65,0,0,0,3.52-3.4q1-2.1,1-10.33V894.54c0-5.49-.34-8.94-1-10.37a7.38,7.38,0,0,0-3.56-3.4q-2.53-1.28-9.5-1.27v-2.77h47.16q18.4,0,26.95,2.54a27.17,27.17,0,0,1,13.92,9.4,25.19,25.19,0,0,1,5.39,16.05,24,24,0,0,1-8.09,18.57q-5.16,4.63-14.44,7l24.4,34.36q4.79,6.66,6.81,8.31a12.75,12.75,0,0,0,7.11,2.54v2.77h-32L324.81,932Zm0-49.78v44.47h4.27q10.41,0,15.57-1.91a15.55,15.55,0,0,0,8.12-6.89q3-5,3-13,0-11.6-5.43-17.14t-17.48-5.54Z"
                    transform="translate(-179.7 -188.88)" />
                <path
                    d="M444.28,975.46v2.77H391.21v-2.77h3.36a14,14,0,0,0,7.12-1.57,6.87,6.87,0,0,0,3-3.59q.82-1.8.82-9.43V894.09q0-7.79-.82-9.73a7.53,7.53,0,0,0-3.33-3.41,13.49,13.49,0,0,0-6.78-1.45h-3.36v-2.77h53.07v2.77h-3.37a14,14,0,0,0-7.11,1.57,7.18,7.18,0,0,0-3.07,3.59q-.83,1.8-.82,9.43v66.78c0,5.19.28,8.43.86,9.73a7.62,7.62,0,0,0,3.37,3.4,13.37,13.37,0,0,0,6.77,1.46Z"
                    transform="translate(-179.7 -188.88)" />
                <path
                    d="M489.57,882.56v41.33h2q9.66,0,14-6.07t5.54-17.89H514v53.15h-2.84a39.81,39.81,0,0,0-3.78-14.22q-2.88-5.54-6.7-7.45t-11.08-1.91v28.6c0,5.59.23,9,.71,10.25a6.13,6.13,0,0,0,2.66,3.07c1.29.8,3.39,1.2,6.28,1.2h6.07q14.22,0,22.79-6.59T540.4,946h2.77l-4.57,32.26H450.87v-2.77h3.37a14,14,0,0,0,7.11-1.57,6.87,6.87,0,0,0,3-3.59q.82-1.8.82-9.43V894.09a53.43,53.43,0,0,0-.37-8.46,7.18,7.18,0,0,0-2.77-4,12.92,12.92,0,0,0-7.78-2.09h-3.37v-2.77h85v30H533q-2.18-11-6.11-15.79a22.63,22.63,0,0,0-11.11-7q-4.2-1.35-15.72-1.35Zm3.14-25.6h13.93l12.05,10.93h-3.6l-15.72-5.09-15.12,5.09h-3.51Zm2.7,128.91a12.4,12.4,0,0,1,12.5,12.5,11.93,11.93,0,0,1-3.67,8.8,12.15,12.15,0,0,1-8.83,3.63,12.47,12.47,0,0,1,0-24.93Z"
                    transform="translate(-179.7 -188.88)" />
                <path
                    d="M553.65,876.73h52.4v2.77h-2.62c-3.95,0-6.65.41-8.12,1.23a7,7,0,0,0-3.15,3.41q-.93,2.16-.93,10.85V944.7q0,13.62,2,18a17.21,17.21,0,0,0,6.78,7.33Q604.77,973,612,973a25.55,25.55,0,0,0,14-3.7,22.79,22.79,0,0,0,8.68-10.22q2.88-6.51,2.88-22.68V895q0-6.81-1.42-9.73a8.54,8.54,0,0,0-3.59-4q-3.37-1.72-9.51-1.72v-2.77h35.11v2.77h-2.1a13.52,13.52,0,0,0-7.11,1.72,9.77,9.77,0,0,0-4.12,5.16q-1,2.4-1,8.61v38.55q0,17.9-2.36,25.83T630,974q-9.13,6.66-24.93,6.66-13.17,0-20.36-3.52-9.81-4.79-13.85-12.28t-4-20.13V895q0-8.76-1-10.89a7.31,7.31,0,0,0-3.37-3.41c-1.6-.85-4.54-1.24-8.83-1.19Z"
                    transform="translate(-179.7 -188.88)" />
                <path
                    d="M740.49,932.27v28.15q0,8.24,1,10.36a7.41,7.41,0,0,0,3.6,3.41c1.72.85,4.87,1.27,9.47,1.27v2.77H703v-2.77c4.69,0,7.87-.43,9.54-1.31a7.6,7.6,0,0,0,3.52-3.4c.68-1.4,1-4.84,1-10.33V894.54c0-5.49-.33-8.94-1-10.37a7.4,7.4,0,0,0-3.55-3.4q-2.55-1.28-9.51-1.27v-2.77h44.24q21.85,0,31.37,7.78T788.1,904A24.83,24.83,0,0,1,782,920.89q-6.13,7-16.91,9.58Q757.78,932.27,740.49,932.27Zm0-49.71v43.87q2.47.15,3.75.15,9.12,0,14.07-5.43t4.94-16.8q0-11.31-4.94-16.55t-14.75-5.24Z"
                    transform="translate(-179.7 -188.88)" />
                <path
                    d="M834.66,929.42v31.45q0,7.78.87,9.73a7.65,7.65,0,0,0,3.36,3.4,13.38,13.38,0,0,0,6.78,1.46H849v2.77H796v-2.77h3.37a14,14,0,0,0,7.11-1.57,6.84,6.84,0,0,0,3-3.59q.82-1.8.82-9.43V894.09q0-7.79-.82-9.73a7.53,7.53,0,0,0-3.33-3.41,13.52,13.52,0,0,0-6.78-1.45H796v-2.77H849v2.77h-3.37a14,14,0,0,0-7.11,1.57,7.18,7.18,0,0,0-3.07,3.59q-.82,1.8-.83,9.43v28.75h35.86V894.09q0-7.79-.82-9.73a7.48,7.48,0,0,0-3.37-3.41,13.72,13.72,0,0,0-6.81-1.45h-3.3v-2.77h53v2.77h-3.29a13.79,13.79,0,0,0-7.12,1.57,7.21,7.21,0,0,0-3.06,3.59q-.82,1.8-.83,9.43v66.78q0,7.78.83,9.73a7.44,7.44,0,0,0,3.36,3.4,13.62,13.62,0,0,0,6.82,1.46h3.29v2.77h-53v-2.77h3.3a13.78,13.78,0,0,0,7.11-1.57,7.18,7.18,0,0,0,3.07-3.59q.82-1.8.82-9.43V929.42Z"
                    transform="translate(-179.7 -188.88)" />
                <path
                    d="M915.59,876.73H968v2.77h-2.62c-4,0-6.65.41-8.13,1.23a7,7,0,0,0-3.14,3.41c-.62,1.44-.94,5.06-.94,10.85V944.7q0,13.62,2.06,18a17.09,17.09,0,0,0,6.78,7.33q4.71,2.92,11.9,2.92a25.55,25.55,0,0,0,14-3.7,22.79,22.79,0,0,0,8.68-10.22q2.88-6.51,2.88-22.68V895q0-6.81-1.42-9.73a8.54,8.54,0,0,0-3.59-4q-3.37-1.72-9.51-1.72v-2.77h35.11v2.77H1018a13.49,13.49,0,0,0-7.11,1.72,9.77,9.77,0,0,0-4.12,5.16q-1,2.4-1,8.61v38.55q0,17.9-2.36,25.83T991.94,974q-9.13,6.66-24.93,6.66-13.17,0-20.36-3.52-9.81-4.79-13.85-12.28t-4-20.13V895q0-8.76-1-10.89a7.31,7.31,0,0,0-3.37-3.41c-1.6-.85-4.54-1.24-8.83-1.19Zm72.46-34.66-24.78,26h-6.44l8.69-26Z"
                    transform="translate(-179.7 -188.88)" />
            </g>
            <path class="cls-13"
                d="M270.88,875.73V903.2h-2.69q-2.4-9.51-5.32-13.66a20.41,20.41,0,0,0-8-6.63q-2.84-1.35-10-1.35h-7.56v78.31c0,5.19.28,8.43.86,9.73a7.65,7.65,0,0,0,3.36,3.4,13.59,13.59,0,0,0,6.85,1.46h3.37v2.77H198.64v-2.77H202a14,14,0,0,0,7.11-1.57,7.13,7.13,0,0,0,3.07-3.59q.83-1.8.83-9.43V881.56h-7.34q-10.26,0-14.9,4.35-6.51,6.06-8.23,17.29H179.7V875.73Z"
                transform="translate(-179.7 -188.88)" />
            <path class="cls-13"
                d="M317.14,931v28.45q0,8.24,1,10.36a7.33,7.33,0,0,0,3.55,3.41q2.55,1.27,9.51,1.27v2.77h-52v-2.77c4.69,0,7.87-.43,9.54-1.31a7.65,7.65,0,0,0,3.52-3.4q1-2.1,1-10.33V893.54c0-5.49-.34-8.94-1-10.37a7.38,7.38,0,0,0-3.56-3.4q-2.53-1.28-9.5-1.27v-2.77h47.16q18.4,0,26.95,2.54a27.17,27.17,0,0,1,13.92,9.4,25.19,25.19,0,0,1,5.39,16.05,24,24,0,0,1-8.09,18.57q-5.16,4.63-14.44,7l24.4,34.36q4.79,6.66,6.81,8.31a12.75,12.75,0,0,0,7.11,2.54v2.77h-32L323.81,931Zm0-49.78v44.47h4.27q10.41,0,15.57-1.91a15.55,15.55,0,0,0,8.12-6.89q3-5,3-13,0-11.6-5.43-17.14t-17.48-5.54Z"
                transform="translate(-179.7 -188.88)" />
            <path class="cls-13"
                d="M443.28,974.46v2.77H390.21v-2.77h3.36a14,14,0,0,0,7.12-1.57,6.87,6.87,0,0,0,3-3.59q.82-1.8.82-9.43V893.09q0-7.79-.82-9.73a7.53,7.53,0,0,0-3.33-3.41,13.49,13.49,0,0,0-6.78-1.45h-3.36v-2.77h53.07v2.77h-3.37a14,14,0,0,0-7.11,1.57,7.18,7.18,0,0,0-3.07,3.59q-.83,1.8-.82,9.43v66.78c0,5.19.28,8.43.86,9.73a7.62,7.62,0,0,0,3.37,3.4,13.37,13.37,0,0,0,6.77,1.46Z"
                transform="translate(-179.7 -188.88)" />
            <path class="cls-14"
                d="M488.57,881.56v41.33h2q9.66,0,14-6.07t5.54-17.89H513v53.15h-2.84a39.81,39.81,0,0,0-3.78-14.22q-2.88-5.54-6.7-7.45t-11.08-1.91v28.6c0,5.59.23,9,.71,10.25a6.13,6.13,0,0,0,2.66,3.07c1.29.8,3.39,1.2,6.28,1.2h6.07q14.22,0,22.79-6.59T539.4,945h2.77l-4.57,32.26H449.87v-2.77h3.37a14,14,0,0,0,7.11-1.57,6.87,6.87,0,0,0,3-3.59q.82-1.8.82-9.43V893.09a53.43,53.43,0,0,0-.37-8.46,7.18,7.18,0,0,0-2.77-4,12.92,12.92,0,0,0-7.78-2.09h-3.37v-2.77h85v30H532q-2.18-11-6.11-15.79a22.63,22.63,0,0,0-11.11-7q-4.2-1.35-15.72-1.35Zm3.14-25.6h13.93l12.05,10.93h-3.6l-15.72-5.09-15.12,5.09h-3.51Zm2.7,128.91a12.4,12.4,0,0,1,12.5,12.5,11.93,11.93,0,0,1-3.67,8.8,12.15,12.15,0,0,1-8.83,3.63,12.47,12.47,0,0,1,0-24.93Z"
                transform="translate(-179.7 -188.88)" />
            <path class="cls-15"
                d="M552.65,875.73h52.4v2.77h-2.62c-3.95,0-6.65.41-8.12,1.23a7,7,0,0,0-3.15,3.41q-.93,2.16-.93,10.85V943.7q0,13.62,2,18a17.21,17.21,0,0,0,6.78,7.33Q603.77,972,611,972a25.55,25.55,0,0,0,14-3.7,22.79,22.79,0,0,0,8.68-10.22q2.88-6.51,2.88-22.68V894q0-6.81-1.42-9.73a8.54,8.54,0,0,0-3.59-4q-3.37-1.72-9.51-1.72v-2.77h35.11v2.77h-2.1a13.52,13.52,0,0,0-7.11,1.72,9.77,9.77,0,0,0-4.12,5.16q-1,2.4-1,8.61v38.55q0,17.9-2.36,25.83T629,973q-9.13,6.66-24.93,6.66-13.17,0-20.36-3.52-9.81-4.79-13.85-12.28t-4-20.13V894q0-8.76-1-10.89a7.31,7.31,0,0,0-3.37-3.41c-1.6-.85-4.54-1.24-8.83-1.19Z"
                transform="translate(-179.7 -188.88)" />
            <path class="cls-13"
                d="M739.49,931.27v28.15q0,8.24,1,10.36a7.41,7.41,0,0,0,3.6,3.41c1.72.85,4.87,1.27,9.47,1.27v2.77H702v-2.77c4.69,0,7.87-.43,9.54-1.31a7.6,7.6,0,0,0,3.52-3.4c.68-1.4,1-4.84,1-10.33V893.54c0-5.49-.33-8.94-1-10.37a7.4,7.4,0,0,0-3.55-3.4q-2.55-1.28-9.51-1.27v-2.77h44.24q21.85,0,31.37,7.78T787.1,903A24.83,24.83,0,0,1,781,919.89q-6.13,7-16.91,9.58Q756.78,931.27,739.49,931.27Zm0-49.71v43.87q2.47.15,3.75.15,9.12,0,14.07-5.43t4.94-16.8q0-11.31-4.94-16.55t-14.75-5.24Z"
                transform="translate(-179.7 -188.88)" />
            <path class="cls-13"
                d="M833.66,928.42v31.45q0,7.78.87,9.73a7.65,7.65,0,0,0,3.36,3.4,13.38,13.38,0,0,0,6.78,1.46H848v2.77H795v-2.77h3.37a14,14,0,0,0,7.11-1.57,6.84,6.84,0,0,0,3-3.59q.82-1.8.82-9.43V893.09q0-7.79-.82-9.73a7.53,7.53,0,0,0-3.33-3.41,13.52,13.52,0,0,0-6.78-1.45H795v-2.77H848v2.77h-3.37a14,14,0,0,0-7.11,1.57,7.18,7.18,0,0,0-3.07,3.59q-.82,1.8-.83,9.43v28.75h35.86V893.09q0-7.79-.82-9.73a7.48,7.48,0,0,0-3.37-3.41,13.72,13.72,0,0,0-6.81-1.45h-3.3v-2.77h53v2.77h-3.29a13.79,13.79,0,0,0-7.12,1.57,7.21,7.21,0,0,0-3.06,3.59q-.82,1.8-.83,9.43v66.78q0,7.78.83,9.73a7.44,7.44,0,0,0,3.36,3.4,13.62,13.62,0,0,0,6.82,1.46h3.29v2.77h-53v-2.77h3.3a13.78,13.78,0,0,0,7.11-1.57,7.18,7.18,0,0,0,3.07-3.59q.82-1.8.82-9.43V928.42Z"
                transform="translate(-179.7 -188.88)" />
            <path class="cls-16"
                d="M914.59,875.73H967v2.77h-2.62c-4,0-6.65.41-8.13,1.23a7,7,0,0,0-3.14,3.41c-.62,1.44-.94,5.06-.94,10.85V943.7q0,13.62,2.06,18a17.09,17.09,0,0,0,6.78,7.33q4.71,2.92,11.9,2.92a25.55,25.55,0,0,0,14-3.7,22.79,22.79,0,0,0,8.68-10.22q2.88-6.51,2.88-22.68V894q0-6.81-1.42-9.73a8.54,8.54,0,0,0-3.59-4q-3.37-1.72-9.51-1.72v-2.77h35.11v2.77H1017a13.49,13.49,0,0,0-7.11,1.72,9.77,9.77,0,0,0-4.12,5.16q-1,2.4-1,8.61v38.55q0,17.9-2.36,25.83T990.94,973q-9.13,6.66-24.93,6.66-13.17,0-20.36-3.52-9.81-4.79-13.85-12.28t-4-20.13V894q0-8.76-1-10.89a7.31,7.31,0,0,0-3.37-3.41c-1.6-.85-4.54-1.24-8.83-1.19Zm72.46-34.66-24.78,26h-6.44l8.69-26Z"
                transform="translate(-179.7 -188.88)" />
        </g>
    </g>
</svg>