<?xml version="1.0" encoding="utf-8"?>
<!-- Generator: Adobe Illustrator 27.4.1, SVG Export Plug-In . SVG Version: 6.00 Build 0)  -->
<svg version="1.1" id="Layer_1" xmlns="http://www.w3.org/2000/svg"
	xmlns:xlink="http://www.w3.org/1999/xlink" x="0px" y="0px" viewBox="0 0 920.2 905.9"
	style="enable-background:new 0 0 920.2 905.9;" xml:space="preserve">
  <style type="text/css">
    .st0 {
      fill: url(#SVGID_1_);
    }

    .st1 {
      fill: url(#SVGID_00000109027252458466796070000012204928587092284846_);
    }

    .st2 {
      fill: url(#SVGID_00000153691861848970981770000017299307998744672929_);
    }

    .st3 {
      fill: url(#SVGID_00000114773845878628072830000014752784211904840588_);
    }

    .st4 {
      fill: url(#SVGID_00000103254041915667728270000007818429298112015000_);
    }
  </style>
  <linearGradient id="SVGID_1_" gradientUnits="userSpaceOnUse" x1="644.6252" y1="313.25" x2="644.6252" y2="-138.65" gradientTransform="matrix(1 0 0 -1 -139.79 761.12)">
    <stop offset="0" style="stop-color:#D4B274" />
    <stop offset="0.18" style="stop-color:#AE9363" />
    <stop offset="0.34" style="stop-color:#D2B073" />
    <stop offset="0.53" style="stop-color:#FAD084" />
    <stop offset="0.6" style="stop-color:#D7B16C" />
    <stop offset="0.7" style="stop-color:#B08E50" />
    <stop offset="0.88" style="stop-color:#D8B26D" />
    <stop offset="1" style="stop-color:#F3CA81" />
  </linearGradient>
  <path class="st0" d="M606.6,443.9H302.9v48.6h303.7c42.5,1.5,75.7,37.2,74.2,79.7c-1.5,40.3-33.8,72.7-74.2,74.2H456.2V545.2H302.9
	v48.6h104.8v52.7h-3.5c-69.3-0.6-126,55.1-126.7,124.4s55.1,126,124.4,126.7c0.7,0,1.5,0,2.2,0h125.5V695h77
	c69.3,0,125.5-56.2,125.5-125.6S676,443.9,606.6,443.9L606.6,443.9z M481.1,848.9h-24.9V708.5h-48.5v140.4h-3.5
	c-42.5,0.5-77.3-33.6-77.8-76.1c-0.5-42.5,33.6-77.3,76.1-77.8c0.6,0,1.2,0,1.8,0h76.9V848.9z" />
  <linearGradient id="SVGID_00000011753057624484551010000003575174561232943295_" gradientUnits="userSpaceOnUse" x1="695.1179" y1="313.25" x2="695.1179" y2="-138.65" gradientTransform="matrix(1 0 0 -1 -139.79 761.12)">
    <stop offset="0" style="stop-color:#D4B274" />
    <stop offset="0.18" style="stop-color:#AE9363" />
    <stop offset="0.34" style="stop-color:#D2B073" />
    <stop offset="0.53" style="stop-color:#FAD084" />
    <stop offset="0.6" style="stop-color:#D7B16C" />
    <stop offset="0.7" style="stop-color:#B08E50" />
    <stop offset="0.88" style="stop-color:#D8B26D" />
    <stop offset="1" style="stop-color:#F3CA81" />
  </linearGradient>
  <path style="fill:url(#SVGID_00000011753057624484551010000003575174561232943295_);" d="M529.7,593.8h75.6
	c13.4,0,24.3-10.9,24.3-24.3c0-13.4-10.9-24.3-24.3-24.3H481.1v87.8h48.6V593.8z" />
  <linearGradient id="SVGID_00000085949652211079750440000012566613599310433721_" gradientUnits="userSpaceOnUse" x1="164.79" y1="175.0526" x2="1056.65" y2="175.0526" gradientTransform="matrix(1 0 0 -1 -139.79 761.12)">
    <stop offset="0" style="stop-color:#D4B274" />
    <stop offset="0.18" style="stop-color:#AE9363" />
    <stop offset="0.34" style="stop-color:#D2B073" />
    <stop offset="0.53" style="stop-color:#FAD084" />
    <stop offset="0.6" style="stop-color:#D7B16C" />
    <stop offset="0.7" style="stop-color:#B08E50" />
    <stop offset="0.88" style="stop-color:#D8B26D" />
    <stop offset="1" style="stop-color:#F3CA81" />
  </linearGradient>
  <path style="fill:url(#SVGID_00000085949652211079750440000012566613599310433721_);" d="M91.6,905.9
	c-37-62.6-56.4-136.4-55.9-210.5c-0.2-4.6,0.1-9.3,0.3-13.9l0.7-13.9c1-9.2,1.5-18.5,3-27.7l2.1-13.8c0.7-4.6,1.8-9.2,2.6-13.7
	C46,603,48.4,594,50.7,585c1.1-4.6,2.6-9,3.9-13.5s2.6-9,4.3-13.4c3.3-8.8,6.3-17.6,10.2-26.2c7.1-17.4,15.9-34,25.2-50.3
	c19.1-32.3,42.1-62.7,69.2-88.9c13.3-13.4,27.8-25.5,42.7-37.2c7.7-5.5,15.1-11.4,23.1-16.4c4-2.6,7.9-5.2,11.9-7.8l12.2-7.2
	c4-2.5,8.2-4.7,12.4-6.9l12.6-6.6c8.6-3.8,17.1-8.2,26-11.5l13.2-5.3l13.5-4.6c8.9-3.3,18.1-5.5,27.2-8.3
	c73.8-19.5,151.4-19.5,225.2,0c9.1,2.8,18.3,5,27.2,8.3l13.4,4.6l13.2,5.3c8.9,3.3,17.3,7.7,26,11.5c8.4,4.4,17,8.5,25,13.4
	l12.2,7.2c4,2.5,7.9,5.2,11.9,7.7c8,5,15.5,10.9,23.2,16.4c14.9,11.6,29.5,23.7,42.7,37.2c27.1,26.3,50,56.7,69.1,89
	c9.3,16.3,18.1,33,25.2,50.3c3.9,8.5,6.9,17.4,10.2,26.2c1.7,4.4,2.9,8.9,4.3,13.4s2.9,8.9,3.9,13.5c9.5,36.1,15.1,73.3,15.1,110.4
	c0.4,74.2-18.9,148-56,210.5c29.1-66.5,42.1-139,36.3-209.8c-4.8-70.8-28.1-139.3-65.7-198.2c-38.1-58.5-90.1-107.7-151.1-140.8
	c-30.3-16.9-62.8-29.3-96.3-38.1c-67.4-17.1-137.9-17.1-205.3,0c-33.6,8.6-65.9,21.4-96.3,38c-61.2,32.9-112.9,82.4-151.1,140.9
	C83.2,556.8,60,625.3,55.2,696.1C49.4,766.9,62.5,839.4,91.6,905.9z" />
  <linearGradient id="SVGID_00000111166326427755021230000002129521358643989688_" gradientUnits="userSpaceOnUse" x1="1447.0673" y1="298.0026" x2="744.4072" y2="298.0026" gradientTransform="matrix(0.9453 -0.3261 -0.3261 -0.9453 117.2654 588.8104)">
    <stop offset="0" style="stop-color:#D4B274" />
    <stop offset="0.18" style="stop-color:#AE9363" />
    <stop offset="0.34" style="stop-color:#D2B073" />
    <stop offset="0.53" style="stop-color:#FAD084" />
    <stop offset="0.6" style="stop-color:#D7B16C" />
    <stop offset="0.7" style="stop-color:#B08E50" />
    <stop offset="0.88" style="stop-color:#D8B26D" />
    <stop offset="1" style="stop-color:#F3CA81" />
  </linearGradient>
  <path style="fill:url(#SVGID_00000111166326427755021230000002129521358643989688_);" d="M26.1,334.8c-0.5,0.3-0.9,0.5-1.4,0.8
	c-0.4,0.2-0.8,0.5-1.1,0.8l0,0c-9.4,5.7-12.5,17.9-6.8,27.3c1.6,2.7,3.8,4.9,6.4,6.6l-0.8,18.4L0,428.9l62.8,2.8l-19.1-42.8
	l0.8-18.8c0.9-0.5,1.8-1,2.6-1.7c4.9-3.5,7.9-9.1,8.1-15.1c0.3-7.1-3.2-13.8-9.2-17.6l7.4-170l-19.9-2.6L26.1,334.8z" />
  <linearGradient id="SVGID_00000061444735672327599090000003723456277413543822_" gradientUnits="userSpaceOnUse" x1="995.1662" y1="621.2343" x2="292.5163" y2="621.2343" gradientTransform="matrix(0.9993 3.664371e-02 3.664371e-02 -0.9993 -166.929 765.2976)">
    <stop offset="0" style="stop-color:#D4B274" />
    <stop offset="0.18" style="stop-color:#AE9363" />
    <stop offset="0.34" style="stop-color:#D2B073" />
    <stop offset="0.53" style="stop-color:#FAD084" />
    <stop offset="0.6" style="stop-color:#D7B16C" />
    <stop offset="0.7" style="stop-color:#B08E50" />
    <stop offset="0.88" style="stop-color:#D8B26D" />
    <stop offset="1" style="stop-color:#F3CA81" />
  </linearGradient>
  <path style="fill:url(#SVGID_00000061444735672327599090000003723456277413543822_);" d="M920.2,179.9l-81.3-33.2L479.5,0L32,162.3
	l19.8,10.4l51.2,26.9l71.8,37.7l22.1,11.6l-0.2,8.3l-1.3,67.1c172.1-98,383.1-98.2,555.4-0.5l1.2-63.9L920.2,179.9z" />
</svg>