<svg xmlns="http://www.w3.org/2000/svg" xmlns:xlink="http://www.w3.org/1999/xlink"
    viewBox="0 0 840.38 258.48">
    <defs>
        <style>
            .cls-1 {
            isolation: isolate;
            }

            .cls-2 {
            opacity: 0.61;
            mix-blend-mode: multiply;
            }

            .cls-3 {
            fill: url(#linear-gradient);
            }

            .cls-4 {
            fill: url(#linear-gradient-2);
            }

            .cls-5 {
            fill: url(#linear-gradient-3);
            }

            .cls-6 {
            fill: url(#linear-gradient-4);
            }

            .cls-7 {
            fill: url(#linear-gradient-5);
            }

            .cls-8 {
            fill: url(#linear-gradient-6);
            }

            .cls-9 {
            fill: url(#linear-gradient-9);
            }

            .cls-10 {
            fill: url(#linear-gradient-10);
            }

            .cls-11 {
            fill: url(#linear-gradient-13);
            }
        </style>
        <linearGradient id="linear-gradient" x1="450.61" y1="456.78" x2="450.61" y2="523.22"
            gradientUnits="userSpaceOnUse">
            <stop offset="0" stop-color="#aa9161" />
            <stop offset="0.37" stop-color="#b39660" />
            <stop offset="0.95" stop-color="#caa45f" />
            <stop offset="1" stop-color="#cca55f" />
        </linearGradient>
        <linearGradient id="linear-gradient-2" x1="523.34" y1="456.78" x2="523.34" y2="523.22"
            xlink:href="#linear-gradient" />
        <linearGradient id="linear-gradient-3" x1="620.3" y1="456.78" x2="620.3" y2="523.22"
            xlink:href="#linear-gradient" />
        <linearGradient id="linear-gradient-4" x1="692.26" y1="456.78" x2="692.26" y2="523.22"
            xlink:href="#linear-gradient" />
        <linearGradient id="linear-gradient-5" x1="761.71" y1="456.78" x2="761.71" y2="523.22"
            xlink:href="#linear-gradient" />
        <linearGradient id="linear-gradient-6" x1="211.49" y1="630.48" x2="1009.27" y2="630.48"
            gradientUnits="userSpaceOnUse">
            <stop offset="0" stop-color="#d4b274" />
            <stop offset="0.18" stop-color="#ae9363" />
            <stop offset="0.34" stop-color="#d2b073" />
            <stop offset="0.53" stop-color="#fad084" />
            <stop offset="0.6" stop-color="#d7b16c" />
            <stop offset="0.7" stop-color="#b08e50" />
            <stop offset="0.88" stop-color="#d8b26d" />
            <stop offset="1" stop-color="#f3ca81" />
        </linearGradient>
        <linearGradient id="linear-gradient-9" x1="211.49" y1="636.88" x2="1009.27" y2="636.88"
            xlink:href="#linear-gradient-6" />
        <linearGradient id="linear-gradient-10" x1="211.49" y1="631.68" x2="1009.27" y2="631.68"
            xlink:href="#linear-gradient-6" />
        <linearGradient id="linear-gradient-13" x1="211.49" y1="614.35" x2="1009.27" y2="614.35"
            xlink:href="#linear-gradient-6" />
    </defs>
    <title>Untitled-2q</title>
    <g class="cls-1">
        <g id="Layer_1" data-name="Layer 1">
            <g class="cls-2">
                <path
                    d="M418.38,523.79V522h2.48q4.18,0,5.93-2.67c.72-1.07,1.07-3.47,1.07-7.21V469.5q0-6.18-1.36-7.74a7.12,7.12,0,0,0-5.64-2.14h-2.48v-1.8h26.85q14.79,0,22.51,3.36a26.73,26.73,0,0,1,12.4,11.19,34.51,34.51,0,0,1,4.7,18.1q0,13.75-8.37,23-9.39,10.31-28.61,10.31ZM437.21,519a49.54,49.54,0,0,0,10.36,1.37,24.63,24.63,0,0,0,18.73-7.93q7.44-7.94,7.44-21.51T466.3,469.4q-7.44-7.89-19.12-7.88a41.31,41.31,0,0,0-10,1.41Z"
                    transform="translate(-184.7 -456.31)" />
                <path
                    d="M536.16,459.62v-1.8h23.36v1.8H557a6.72,6.72,0,0,0-6,3.26c-.68,1-1,3.34-1,7v26.76q0,9.93-2,15.4a19.28,19.28,0,0,1-7.74,9.39q-5.76,3.92-15.69,3.92-10.8,0-16.39-3.75a20.24,20.24,0,0,1-7.93-10.07q-1.56-4.32-1.56-16.25V469.5q0-6.09-1.68-8t-5.42-1.9h-2.48v-1.8h28.51v1.8h-2.53c-2.73,0-4.67.86-5.84,2.58q-1.21,1.76-1.22,7.3v28.75a63.58,63.58,0,0,0,.71,8.81,18.8,18.8,0,0,0,2.55,7.73,13.86,13.86,0,0,0,5.33,4.57,18.41,18.41,0,0,0,8.54,1.8,23.58,23.58,0,0,0,11.58-2.82,15.16,15.16,0,0,0,7-7.22q1.88-4.41,1.87-14.91V469.5q0-6.18-1.36-7.74a7.16,7.16,0,0,0-5.65-2.14Z"
                    transform="translate(-184.7 -456.31)" />
                <path
                    d="M606,488.42h30.65V469.55q0-5.07-.63-6.67a4.37,4.37,0,0,0-2-2.09,8.91,8.91,0,0,0-4.42-1.17h-2.34v-1.8h28.22v1.8h-2.33a9.2,9.2,0,0,0-4.43,1.12,4.06,4.06,0,0,0-2.12,2.36,23.55,23.55,0,0,0-.56,6.45v42.56c0,3.35.21,5.55.63,6.62a4.39,4.39,0,0,0,2,2.09,9.22,9.22,0,0,0,4.48,1.17h2.33v1.8H627.19V522h2.34q4,0,5.88-2.38,1.22-1.56,1.22-7.5V492H606v20.09c0,3.35.21,5.55.63,6.62a4.39,4.39,0,0,0,2,2.09,9,9,0,0,0,4.43,1.17h2.39v1.8H587.2V522h2.34q4.08,0,5.93-2.38,1.17-1.56,1.17-7.5V469.55q0-5.07-.63-6.67a4.39,4.39,0,0,0-2-2.09,9.21,9.21,0,0,0-4.47-1.17H587.2v-1.8h28.27v1.8h-2.39a9.25,9.25,0,0,0-4.43,1.12,4.22,4.22,0,0,0-2.09,2.36,22.51,22.51,0,0,0-.58,6.45Z"
                    transform="translate(-184.7 -456.31)" />
                <path
                    d="M693.89,456.31q12.86,0,22.26,9.76t9.42,24.35q0,15-9.49,24.95a31.72,31.72,0,0,1-45.86.25q-9.27-9.69-9.26-25.06,0-15.71,10.7-25.64A31.57,31.57,0,0,1,693.89,456.31Zm-.92,3.55a17.42,17.42,0,0,0-14.21,6.57q-6.66,8.18-6.66,23.94,0,16.15,6.91,24.86a17.06,17.06,0,0,0,14,6.62,19.16,19.16,0,0,0,15.35-7.25q6.06-7.26,6-22.87,0-16.94-6.66-25.25Q702.41,459.87,693,459.86Zm-.15,69.77a5.2,5.2,0,0,1,3.85,1.58,5.27,5.27,0,0,1,1.55,3.82,5.4,5.4,0,1,1-9.22-3.84A5.25,5.25,0,0,1,692.82,529.63Z"
                    transform="translate(-184.7 -456.31)" />
                <path
                    d="M789.4,456.31l1.51,22.43H789.4q-3-10.07-8.61-14.5a21,21,0,0,0-13.43-4.43,21.85,21.85,0,0,0-11.87,3.34q-5.31,3.33-8.35,10.63t-3,18.14A38.56,38.56,0,0,0,747,507.44a21.55,21.55,0,0,0,8.64,10.08,24.87,24.87,0,0,0,13.16,3.5,22.82,22.82,0,0,0,11.33-2.75q4.92-2.74,10.81-10.92l1.5,1q-5,8.81-11.58,12.89a29.25,29.25,0,0,1-15.71,4.09q-16.39,0-25.4-12.16A34.83,34.83,0,0,1,733,491.83a37.76,37.76,0,0,1,4.43-18.15,32,32,0,0,1,12.18-12.82,33,33,0,0,1,17-4.55,31.14,31.14,0,0,1,14.11,3.5,7.57,7.57,0,0,0,2.92,1.08,3.18,3.18,0,0,0,2.28-.93,7.47,7.47,0,0,0,1.8-3.65Z"
                    transform="translate(-184.7 -456.31)" />
            </g>
            <path class="cls-3"
                d="M417.38,523.79V522h2.48q4.18,0,5.93-2.67c.72-1.07,1.07-3.47,1.07-7.21V469.5q0-6.18-1.36-7.74a7.12,7.12,0,0,0-5.64-2.14h-2.48v-1.8h26.85q14.79,0,22.51,3.36a26.73,26.73,0,0,1,12.4,11.19,34.51,34.51,0,0,1,4.7,18.1q0,13.75-8.37,23-9.39,10.31-28.61,10.31ZM436.21,519a49.54,49.54,0,0,0,10.36,1.37,24.63,24.63,0,0,0,18.73-7.93q7.44-7.94,7.44-21.51T465.3,469.4q-7.44-7.89-19.12-7.88a41.31,41.31,0,0,0-10,1.41Z"
                transform="translate(-184.7 -456.31)" />
            <path class="cls-4"
                d="M535.16,459.62v-1.8h23.36v1.8H556a6.72,6.72,0,0,0-6,3.26c-.68,1-1,3.34-1,7v26.76q0,9.93-2,15.4a19.28,19.28,0,0,1-7.74,9.39q-5.76,3.92-15.69,3.92-10.8,0-16.39-3.75a20.24,20.24,0,0,1-7.93-10.07q-1.56-4.32-1.56-16.25V469.5q0-6.09-1.68-8t-5.42-1.9h-2.48v-1.8h28.51v1.8h-2.53c-2.73,0-4.67.86-5.84,2.58q-1.21,1.76-1.22,7.3v28.75a63.58,63.58,0,0,0,.71,8.81,18.8,18.8,0,0,0,2.55,7.73,13.86,13.86,0,0,0,5.33,4.57,18.41,18.41,0,0,0,8.54,1.8,23.58,23.58,0,0,0,11.58-2.82,15.16,15.16,0,0,0,7-7.22q1.88-4.41,1.87-14.91V469.5q0-6.18-1.36-7.74a7.16,7.16,0,0,0-5.65-2.14Z"
                transform="translate(-184.7 -456.31)" />
            <path class="cls-5"
                d="M605,488.42h30.65V469.55q0-5.07-.63-6.67a4.37,4.37,0,0,0-2-2.09,8.91,8.91,0,0,0-4.42-1.17h-2.34v-1.8h28.22v1.8h-2.33a9.2,9.2,0,0,0-4.43,1.12,4.06,4.06,0,0,0-2.12,2.36,23.55,23.55,0,0,0-.56,6.45v42.56c0,3.35.21,5.55.63,6.62a4.39,4.39,0,0,0,2,2.09,9.22,9.22,0,0,0,4.48,1.17h2.33v1.8H626.19V522h2.34q4,0,5.88-2.38,1.22-1.56,1.22-7.5V492H605v20.09c0,3.35.21,5.55.63,6.62a4.39,4.39,0,0,0,2,2.09,9,9,0,0,0,4.43,1.17h2.39v1.8H586.2V522h2.34q4.08,0,5.93-2.38,1.17-1.56,1.17-7.5V469.55q0-5.07-.63-6.67a4.39,4.39,0,0,0-2-2.09,9.21,9.21,0,0,0-4.47-1.17H586.2v-1.8h28.27v1.8h-2.39a9.25,9.25,0,0,0-4.43,1.12,4.22,4.22,0,0,0-2.09,2.36,22.51,22.51,0,0,0-.58,6.45Z"
                transform="translate(-184.7 -456.31)" />
            <path class="cls-6"
                d="M692.89,456.31q12.86,0,22.26,9.76t9.42,24.35q0,15-9.49,24.95a31.72,31.72,0,0,1-45.86.25q-9.27-9.69-9.26-25.06,0-15.71,10.7-25.64A31.57,31.57,0,0,1,692.89,456.31Zm-.92,3.55a17.42,17.42,0,0,0-14.21,6.57q-6.66,8.18-6.66,23.94,0,16.15,6.91,24.86a17.06,17.06,0,0,0,14,6.62,19.16,19.16,0,0,0,15.35-7.25q6.06-7.26,6-22.87,0-16.94-6.66-25.25Q701.41,459.87,692,459.86Zm-.15,69.77a5.2,5.2,0,0,1,3.85,1.58,5.27,5.27,0,0,1,1.55,3.82,5.4,5.4,0,1,1-9.22-3.84A5.25,5.25,0,0,1,691.82,529.63Z"
                transform="translate(-184.7 -456.31)" />
            <path class="cls-7"
                d="M788.4,456.31l1.51,22.43H788.4q-3-10.07-8.61-14.5a21,21,0,0,0-13.43-4.43,21.85,21.85,0,0,0-11.87,3.34q-5.31,3.33-8.35,10.63t-3,18.14A38.56,38.56,0,0,0,746,507.44a21.55,21.55,0,0,0,8.64,10.08,24.87,24.87,0,0,0,13.16,3.5,22.82,22.82,0,0,0,11.33-2.75q4.92-2.74,10.81-10.92l1.5,1q-5,8.81-11.58,12.89a29.25,29.25,0,0,1-15.71,4.09q-16.39,0-25.4-12.16A34.83,34.83,0,0,1,732,491.83a37.76,37.76,0,0,1,4.43-18.15,32,32,0,0,1,12.18-12.82,33,33,0,0,1,17-4.55,31.14,31.14,0,0,1,14.11,3.5,7.57,7.57,0,0,0,2.92,1.08,3.18,3.18,0,0,0,2.28-.93,7.47,7.47,0,0,0,1.8-3.65Z"
                transform="translate(-184.7 -456.31)" />
            <g class="cls-2">
                <path
                    d="M276.88,580.73V608.2h-2.69q-2.4-9.51-5.32-13.66a20.41,20.41,0,0,0-8-6.63q-2.83-1.35-10-1.35h-7.56v78.31c0,5.19.28,8.43.86,9.73a7.65,7.65,0,0,0,3.36,3.4,13.59,13.59,0,0,0,6.85,1.46h3.37v2.77H204.64v-2.77H208a14,14,0,0,0,7.11-1.57,7.13,7.13,0,0,0,3.07-3.59q.83-1.8.83-9.43V586.56h-7.34q-10.26,0-14.9,4.35-6.51,6.06-8.23,17.29H185.7V580.73Z"
                    transform="translate(-184.7 -456.31)" />
                <path
                    d="M323.14,636v28.45q0,8.24,1,10.36a7.33,7.33,0,0,0,3.55,3.41q2.55,1.27,9.51,1.27v2.77h-52v-2.77c4.69,0,7.87-.43,9.54-1.31a7.65,7.65,0,0,0,3.52-3.4q1-2.1,1-10.33V598.54c0-5.49-.34-8.94-1-10.37a7.38,7.38,0,0,0-3.56-3.4q-2.53-1.28-9.5-1.27v-2.77h47.16q18.4,0,26.95,2.54a27.17,27.17,0,0,1,13.92,9.4,25.19,25.19,0,0,1,5.39,16.05,24,24,0,0,1-8.09,18.57q-5.16,4.63-14.44,7l24.4,34.36q4.79,6.66,6.81,8.31a12.75,12.75,0,0,0,7.11,2.54v2.77h-32L329.81,636Zm0-49.78v44.47h4.27q10.41,0,15.57-1.91a15.55,15.55,0,0,0,8.12-6.89q3-5,3-13,0-11.6-5.43-17.14t-17.48-5.54Z"
                    transform="translate(-184.7 -456.31)" />
                <path
                    d="M449.28,679.46v2.77H396.21v-2.77h3.36a14,14,0,0,0,7.12-1.57,6.87,6.87,0,0,0,3-3.59q.82-1.8.82-9.43V598.09q0-7.79-.82-9.73a7.53,7.53,0,0,0-3.33-3.41,13.49,13.49,0,0,0-6.78-1.45h-3.36v-2.77h53.07v2.77h-3.37a14,14,0,0,0-7.11,1.57,7.18,7.18,0,0,0-3.07,3.59q-.83,1.8-.82,9.43v66.78c0,5.19.28,8.43.86,9.73a7.62,7.62,0,0,0,3.37,3.4,13.37,13.37,0,0,0,6.77,1.46Z"
                    transform="translate(-184.7 -456.31)" />
                <path
                    d="M494.57,586.56v41.33h2q9.66,0,14-6.07t5.54-17.89H519v53.15h-2.84a39.81,39.81,0,0,0-3.78-14.22q-2.88-5.54-6.7-7.45t-11.08-1.91v28.6c0,5.59.23,9,.71,10.25a6.13,6.13,0,0,0,2.66,3.07c1.29.8,3.39,1.2,6.28,1.2h6.07q14.22,0,22.79-6.59T545.4,650h2.77l-4.57,32.26H455.87v-2.77h3.37a14,14,0,0,0,7.11-1.57,6.87,6.87,0,0,0,3-3.59q.82-1.8.82-9.43V598.09a53.43,53.43,0,0,0-.37-8.46,7.18,7.18,0,0,0-2.77-4,12.92,12.92,0,0,0-7.78-2.09h-3.37v-2.77h85v30H538q-2.18-11-6.11-15.79a22.63,22.63,0,0,0-11.11-7q-4.2-1.35-15.72-1.35Zm3.14-25.6h13.93l12.05,10.93h-3.6l-15.72-5.09-15.12,5.09h-3.51Zm2.7,128.91a12.4,12.4,0,0,1,12.5,12.5,11.93,11.93,0,0,1-3.67,8.8,12.15,12.15,0,0,1-8.83,3.63,12.47,12.47,0,0,1,0-24.93Z"
                    transform="translate(-184.7 -456.31)" />
                <path
                    d="M558.65,580.73h52.4v2.77h-2.62c-3.95,0-6.65.41-8.12,1.23a7,7,0,0,0-3.15,3.41q-.93,2.16-.93,10.85V648.7q0,13.62,2,18a17.21,17.21,0,0,0,6.78,7.33Q609.77,677,617,677a25.55,25.55,0,0,0,14-3.7,22.79,22.79,0,0,0,8.68-10.22q2.88-6.51,2.88-22.68V599q0-6.81-1.42-9.73a8.54,8.54,0,0,0-3.59-4q-3.37-1.72-9.51-1.72v-2.77h35.11v2.77h-2.1a13.52,13.52,0,0,0-7.11,1.72,9.77,9.77,0,0,0-4.12,5.16q-1,2.4-1,8.61v38.55q0,17.9-2.36,25.83T635,678q-9.13,6.66-24.93,6.66-13.17,0-20.36-3.52-9.81-4.79-13.85-12.28t-4-20.13V599q0-8.76-1-10.89a7.31,7.31,0,0,0-3.37-3.41c-1.6-.85-4.54-1.24-8.83-1.19Z"
                    transform="translate(-184.7 -456.31)" />
                <path
                    d="M745.49,636.27v28.15q0,8.24,1,10.36a7.41,7.41,0,0,0,3.6,3.41c1.72.85,4.87,1.27,9.47,1.27v2.77H708v-2.77c4.69,0,7.87-.43,9.54-1.31a7.6,7.6,0,0,0,3.52-3.4c.68-1.4,1-4.84,1-10.33V598.54c0-5.49-.33-8.94-1-10.37a7.4,7.4,0,0,0-3.55-3.4q-2.55-1.28-9.51-1.27v-2.77h44.24q21.85,0,31.37,7.78T793.1,608A24.83,24.83,0,0,1,787,624.89q-6.13,7-16.91,9.58Q762.78,636.27,745.49,636.27Zm0-49.71v43.87q2.47.15,3.75.15,9.12,0,14.07-5.43t4.94-16.8q0-11.31-4.94-16.55t-14.75-5.24Z"
                    transform="translate(-184.7 -456.31)" />
                <path
                    d="M839.66,633.42v31.45q0,7.78.87,9.73a7.65,7.65,0,0,0,3.36,3.4,13.38,13.38,0,0,0,6.78,1.46H854v2.77H801v-2.77h3.37a14,14,0,0,0,7.11-1.57,6.84,6.84,0,0,0,3-3.59q.82-1.8.82-9.43V598.09q0-7.79-.82-9.73a7.53,7.53,0,0,0-3.33-3.41,13.52,13.52,0,0,0-6.78-1.45H801v-2.77H854v2.77h-3.37a14,14,0,0,0-7.11,1.57,7.18,7.18,0,0,0-3.07,3.59q-.82,1.8-.83,9.43v28.75h35.86V598.09q0-7.79-.82-9.73a7.48,7.48,0,0,0-3.37-3.41,13.72,13.72,0,0,0-6.81-1.45h-3.3v-2.77h53v2.77h-3.29a13.79,13.79,0,0,0-7.12,1.57,7.21,7.21,0,0,0-3.06,3.59q-.82,1.8-.83,9.43v66.78q0,7.78.83,9.73a7.44,7.44,0,0,0,3.36,3.4,13.62,13.62,0,0,0,6.82,1.46h3.29v2.77h-53v-2.77h3.3a13.78,13.78,0,0,0,7.11-1.57,7.18,7.18,0,0,0,3.07-3.59q.82-1.8.82-9.43V633.42Z"
                    transform="translate(-184.7 -456.31)" />
                <path
                    d="M920.59,580.73H973v2.77h-2.62c-4,0-6.65.41-8.13,1.23a7,7,0,0,0-3.14,3.41c-.62,1.44-.94,5.06-.94,10.85V648.7q0,13.62,2.06,18a17.09,17.09,0,0,0,6.78,7.33q4.71,2.92,11.9,2.92a25.55,25.55,0,0,0,14-3.7,22.79,22.79,0,0,0,8.68-10.22q2.88-6.51,2.88-22.68V599q0-6.81-1.42-9.73a8.54,8.54,0,0,0-3.59-4q-3.37-1.72-9.51-1.72v-2.77h35.11v2.77H1023a13.49,13.49,0,0,0-7.11,1.72,9.77,9.77,0,0,0-4.12,5.16q-1,2.4-1,8.61v38.55q0,17.9-2.36,25.83T996.94,678q-9.13,6.66-24.93,6.66-13.17,0-20.36-3.52-9.81-4.79-13.85-12.28t-4-20.13V599q0-8.76-1-10.89a7.31,7.31,0,0,0-3.37-3.41c-1.6-.85-4.54-1.24-8.83-1.19Zm72.46-34.66-24.78,26h-6.44l8.69-26Z"
                    transform="translate(-184.7 -456.31)" />
            </g>
            <path class="cls-8"
                d="M275.88,579.73V607.2h-2.69q-2.4-9.51-5.32-13.66a20.41,20.41,0,0,0-8-6.63q-2.83-1.35-10-1.35h-7.56v78.31c0,5.19.28,8.43.86,9.73a7.65,7.65,0,0,0,3.36,3.4,13.59,13.59,0,0,0,6.85,1.46h3.37v2.77H203.64v-2.77H207a14,14,0,0,0,7.11-1.57,7.13,7.13,0,0,0,3.07-3.59q.83-1.8.83-9.43V585.56h-7.34q-10.26,0-14.9,4.35-6.51,6.06-8.23,17.29H184.7V579.73Z"
                transform="translate(-184.7 -456.31)" />
            <path class="cls-8"
                d="M322.14,635v28.45q0,8.24,1,10.36a7.33,7.33,0,0,0,3.55,3.41q2.55,1.27,9.51,1.27v2.77h-52v-2.77c4.69,0,7.87-.43,9.54-1.31a7.65,7.65,0,0,0,3.52-3.4q1-2.1,1-10.33V597.54c0-5.49-.34-8.94-1-10.37a7.38,7.38,0,0,0-3.56-3.4q-2.53-1.28-9.5-1.27v-2.77h47.16q18.4,0,26.95,2.54a27.17,27.17,0,0,1,13.92,9.4,25.19,25.19,0,0,1,5.39,16.05,24,24,0,0,1-8.09,18.57q-5.16,4.63-14.44,7l24.4,34.36q4.79,6.66,6.81,8.31a12.75,12.75,0,0,0,7.11,2.54v2.77h-32L328.81,635Zm0-49.78v44.47h4.27q10.41,0,15.57-1.91a15.55,15.55,0,0,0,8.12-6.89q3-5,3-13,0-11.6-5.43-17.14t-17.48-5.54Z"
                transform="translate(-184.7 -456.31)" />
            <path class="cls-8"
                d="M448.28,678.46v2.77H395.21v-2.77h3.36a14,14,0,0,0,7.12-1.57,6.87,6.87,0,0,0,3-3.59q.82-1.8.82-9.43V597.09q0-7.79-.82-9.73a7.53,7.53,0,0,0-3.33-3.41,13.49,13.49,0,0,0-6.78-1.45h-3.36v-2.77h53.07v2.77h-3.37a14,14,0,0,0-7.11,1.57,7.18,7.18,0,0,0-3.07,3.59q-.83,1.8-.82,9.43v66.78c0,5.19.28,8.43.86,9.73a7.62,7.62,0,0,0,3.37,3.4,13.37,13.37,0,0,0,6.77,1.46Z"
                transform="translate(-184.7 -456.31)" />
            <path class="cls-9"
                d="M493.57,585.56v41.33h2q9.66,0,14-6.07t5.54-17.89H518v53.15h-2.84a39.81,39.81,0,0,0-3.78-14.22q-2.88-5.54-6.7-7.45t-11.08-1.91v28.6c0,5.59.23,9,.71,10.25a6.13,6.13,0,0,0,2.66,3.07c1.29.8,3.39,1.2,6.28,1.2h6.07q14.22,0,22.79-6.59T544.4,649h2.77l-4.57,32.26H454.87v-2.77h3.37a14,14,0,0,0,7.11-1.57,6.87,6.87,0,0,0,3-3.59q.82-1.8.82-9.43V597.09a53.43,53.43,0,0,0-.37-8.46,7.18,7.18,0,0,0-2.77-4,12.92,12.92,0,0,0-7.78-2.09h-3.37v-2.77h85v30H537q-2.18-11-6.11-15.79a22.63,22.63,0,0,0-11.11-7q-4.2-1.35-15.72-1.35Zm3.14-25.6h13.93l12.05,10.93h-3.6l-15.72-5.09-15.12,5.09h-3.51Zm2.7,128.91a12.4,12.4,0,0,1,12.5,12.5,11.93,11.93,0,0,1-3.67,8.8,12.15,12.15,0,0,1-8.83,3.63,12.47,12.47,0,0,1,0-24.93Z"
                transform="translate(-184.7 -456.31)" />
            <path class="cls-10"
                d="M557.65,579.73h52.4v2.77h-2.62c-3.95,0-6.65.41-8.12,1.23a7,7,0,0,0-3.15,3.41q-.93,2.16-.93,10.85V647.7q0,13.62,2,18a17.21,17.21,0,0,0,6.78,7.33Q608.77,676,616,676a25.55,25.55,0,0,0,14-3.7,22.79,22.79,0,0,0,8.68-10.22q2.88-6.51,2.88-22.68V598q0-6.81-1.42-9.73a8.54,8.54,0,0,0-3.59-4q-3.37-1.72-9.51-1.72v-2.77h35.11v2.77h-2.1a13.52,13.52,0,0,0-7.11,1.72,9.77,9.77,0,0,0-4.12,5.16q-1,2.4-1,8.61v38.55q0,17.9-2.36,25.83T634,677q-9.13,6.66-24.93,6.66-13.17,0-20.36-3.52-9.81-4.79-13.85-12.28t-4-20.13V598q0-8.76-1-10.89a7.31,7.31,0,0,0-3.37-3.41c-1.6-.85-4.54-1.24-8.83-1.19Z"
                transform="translate(-184.7 -456.31)" />
            <path class="cls-8"
                d="M744.49,635.27v28.15q0,8.24,1,10.36a7.41,7.41,0,0,0,3.6,3.41c1.72.85,4.87,1.27,9.47,1.27v2.77H707v-2.77c4.69,0,7.87-.43,9.54-1.31a7.6,7.6,0,0,0,3.52-3.4c.68-1.4,1-4.84,1-10.33V597.54c0-5.49-.33-8.94-1-10.37a7.4,7.4,0,0,0-3.55-3.4q-2.55-1.28-9.51-1.27v-2.77h44.24q21.85,0,31.37,7.78T792.1,607A24.83,24.83,0,0,1,786,623.89q-6.13,7-16.91,9.58Q761.78,635.27,744.49,635.27Zm0-49.71v43.87q2.47.15,3.75.15,9.12,0,14.07-5.43t4.94-16.8q0-11.31-4.94-16.55t-14.75-5.24Z"
                transform="translate(-184.7 -456.31)" />
            <path class="cls-8"
                d="M838.66,632.42v31.45q0,7.78.87,9.73a7.65,7.65,0,0,0,3.36,3.4,13.38,13.38,0,0,0,6.78,1.46H853v2.77H800v-2.77h3.37a14,14,0,0,0,7.11-1.57,6.84,6.84,0,0,0,3-3.59q.82-1.8.82-9.43V597.09q0-7.79-.82-9.73a7.53,7.53,0,0,0-3.33-3.41,13.52,13.52,0,0,0-6.78-1.45H800v-2.77H853v2.77h-3.37a14,14,0,0,0-7.11,1.57,7.18,7.18,0,0,0-3.07,3.59q-.82,1.8-.83,9.43v28.75h35.86V597.09q0-7.79-.82-9.73a7.48,7.48,0,0,0-3.37-3.41,13.72,13.72,0,0,0-6.81-1.45h-3.3v-2.77h53v2.77h-3.29a13.79,13.79,0,0,0-7.12,1.57,7.21,7.21,0,0,0-3.06,3.59q-.82,1.8-.83,9.43v66.78q0,7.78.83,9.73a7.44,7.44,0,0,0,3.36,3.4,13.62,13.62,0,0,0,6.82,1.46h3.29v2.77h-53v-2.77h3.3a13.78,13.78,0,0,0,7.11-1.57,7.18,7.18,0,0,0,3.07-3.59q.82-1.8.82-9.43V632.42Z"
                transform="translate(-184.7 -456.31)" />
            <path class="cls-11"
                d="M919.59,579.73H972v2.77h-2.62c-4,0-6.65.41-8.13,1.23a7,7,0,0,0-3.14,3.41c-.62,1.44-.94,5.06-.94,10.85V647.7q0,13.62,2.06,18a17.09,17.09,0,0,0,6.78,7.33q4.71,2.92,11.9,2.92a25.55,25.55,0,0,0,14-3.7,22.79,22.79,0,0,0,8.68-10.22q2.88-6.51,2.88-22.68V598q0-6.81-1.42-9.73a8.54,8.54,0,0,0-3.59-4q-3.37-1.72-9.51-1.72v-2.77h35.11v2.77H1022a13.49,13.49,0,0,0-7.11,1.72,9.77,9.77,0,0,0-4.12,5.16q-1,2.4-1,8.61v38.55q0,17.9-2.36,25.83T995.94,677q-9.13,6.66-24.93,6.66-13.17,0-20.36-3.52-9.81-4.79-13.85-12.28t-4-20.13V598q0-8.76-1-10.89a7.31,7.31,0,0,0-3.37-3.41c-1.6-.85-4.54-1.24-8.83-1.19Zm72.46-34.66-24.78,26h-6.44l8.69-26Z"
                transform="translate(-184.7 -456.31)" />
        </g>
    </g>
</svg>