<svg xmlns="http://www.w3.org/2000/svg" xmlns:xlink="http://www.w3.org/1999/xlink"
    viewBox="0 0 671.19 185.05">
    <defs>
        <style>
            .cls-1 {
            isolation: isolate;
            }

            .cls-2 {
            opacity: 0.61;
            mix-blend-mode: multiply;
            }

            .cls-3 {
            fill: url(#linear-gradient);
            }

            .cls-4 {
            fill: url(#linear-gradient-2);
            }

            .cls-5 {
            fill: url(#linear-gradient-3);
            }

            .cls-6 {
            fill: url(#linear-gradient-4);
            }

            .cls-7 {
            fill: url(#linear-gradient-5);
            }

            .cls-8 {
            fill: url(#linear-gradient-6);
            }

            .cls-9 {
            fill: url(#linear-gradient-9);
            }

            .cls-10 {
            fill: url(#linear-gradient-10);
            }

            .cls-11 {
            fill: url(#linear-gradient-13);
            }
        </style>
        <linearGradient id="linear-gradient" x1="291.43" y1="507.68" x2="291.43" y2="560.74"
            gradientUnits="userSpaceOnUse">
            <stop offset="0" stop-color="#aa9161" />
            <stop offset="0.37" stop-color="#b39660" />
            <stop offset="0.95" stop-color="#caa45f" />
            <stop offset="1" stop-color="#cca55f" />
        </linearGradient>
        <linearGradient id="linear-gradient-2" x1="349.5" y1="507.68" x2="349.5" y2="560.74"
            xlink:href="#linear-gradient" />
        <linearGradient id="linear-gradient-3" x1="426.92" y1="507.68" x2="426.92" y2="560.74"
            xlink:href="#linear-gradient" />
        <linearGradient id="linear-gradient-4" x1="484.37" y1="507.68" x2="484.37" y2="560.74"
            xlink:href="#linear-gradient" />
        <linearGradient id="linear-gradient-5" x1="539.82" y1="507.68" x2="539.82" y2="560.74"
            xlink:href="#linear-gradient" />
        <linearGradient id="linear-gradient-6" x1="285.69" y1="624.84" x2="922.66" y2="624.84"
            gradientUnits="userSpaceOnUse">
            <stop offset="0" stop-color="#d4b274" />
            <stop offset="0.18" stop-color="#ae9363" />
            <stop offset="0.34" stop-color="#d2b073" />
            <stop offset="0.53" stop-color="#fad084" />
            <stop offset="0.6" stop-color="#d7b16c" />
            <stop offset="0.7" stop-color="#b08e50" />
            <stop offset="0.88" stop-color="#d8b26d" />
            <stop offset="1" stop-color="#f3ca81" />
        </linearGradient>
        <linearGradient id="linear-gradient-9" x1="285.69" y1="629.95" x2="922.66" y2="629.95"
            xlink:href="#linear-gradient-6" />
        <linearGradient id="linear-gradient-10" x1="285.69" y1="625.79" x2="922.66" y2="625.79"
            xlink:href="#linear-gradient-6" />
        <linearGradient id="linear-gradient-13" x1="285.69" y1="611.96" x2="922.66" y2="611.96"
            xlink:href="#linear-gradient-6" />
    </defs>
    <title>Untitled-2h</title>
    <g class="cls-1">
        <g id="Layer_1" data-name="Layer 1">
            <g class="cls-2">
                <path
                    d="M265.9,561.19v-1.44h2c2.22,0,3.81-.71,4.74-2.14.57-.85.85-2.77.85-5.74v-34q0-4.94-1.09-6.18a5.7,5.7,0,0,0-4.5-1.71h-2v-1.44h21.44q11.81,0,18,2.68a21.42,21.42,0,0,1,9.9,8.94A27.54,27.54,0,0,1,319,534.58q0,11-6.68,18.37-7.5,8.24-22.84,8.24Zm15-3.81a39.4,39.4,0,0,0,8.27,1.09,19.65,19.65,0,0,0,15-6.33q5.94-6.33,5.94-17.17t-5.94-17.21a20,20,0,0,0-15.27-6.29,33,33,0,0,0-8,1.12Z"
                    transform="translate(-264.3 -507.31)" />
                <path
                    d="M359.94,510v-1.44h18.65V510h-2a5.35,5.35,0,0,0-4.78,2.6c-.55.81-.82,2.67-.82,5.6v21.36c0,5.29-.52,9.38-1.57,12.3a15.42,15.42,0,0,1-6.18,7.49q-4.61,3.13-12.52,3.13-8.62,0-13.1-3a16.24,16.24,0,0,1-6.33-8q-1.24-3.46-1.24-13V517.84q0-4.86-1.34-6.37A5.51,5.51,0,0,0,324.4,510h-2v-1.44h22.76V510h-2q-3.27,0-4.66,2.06-1,1.4-1,5.83v22.95a51.58,51.58,0,0,0,.56,7,15,15,0,0,0,2,6.17,11,11,0,0,0,4.25,3.65,14.7,14.7,0,0,0,6.82,1.44,18.85,18.85,0,0,0,9.25-2.25,12.13,12.13,0,0,0,5.57-5.77c1-2.35,1.5-6.31,1.5-11.91V517.84c0-3.29-.37-5.35-1.09-6.18a5.71,5.71,0,0,0-4.51-1.71Z"
                    transform="translate(-264.3 -507.31)" />
                <path
                    d="M415.68,533h24.48V517.88a17.53,17.53,0,0,0-.51-5.33,3.52,3.52,0,0,0-1.63-1.67,7.15,7.15,0,0,0-3.54-.93h-1.86v-1.44h22.53V510h-1.86a7.44,7.44,0,0,0-3.54.89,3.3,3.3,0,0,0-1.69,1.89,18.74,18.74,0,0,0-.44,5.15v34a17.42,17.42,0,0,0,.5,5.28,3.52,3.52,0,0,0,1.59,1.67,7.38,7.38,0,0,0,3.58.93h1.86v1.44H432.62v-1.44h1.86a5.6,5.6,0,0,0,4.71-1.9c.64-.83,1-2.82,1-6v-16H415.68v16a17.31,17.31,0,0,0,.51,5.28,3.48,3.48,0,0,0,1.63,1.67,7.15,7.15,0,0,0,3.54.93h1.9v1.44H400.69v-1.44h1.86q3.27,0,4.74-1.9c.62-.83.94-2.82.94-6v-34a17.53,17.53,0,0,0-.51-5.33,3.56,3.56,0,0,0-1.59-1.67,7.38,7.38,0,0,0-3.58-.93h-1.86v-1.44h22.57V510h-1.9a7.44,7.44,0,0,0-3.54.89,3.41,3.41,0,0,0-1.67,1.89,18,18,0,0,0-.47,5.15Z"
                    transform="translate(-264.3 -507.31)" />
                <path
                    d="M485.88,507.31a23.9,23.9,0,0,1,17.77,7.79q7.52,7.78,7.52,19.44,0,12-7.58,19.93a25.32,25.32,0,0,1-36.61.19q-7.39-7.73-7.4-20,0-12.55,8.55-20.47A25.17,25.17,0,0,1,485.88,507.31Zm-.74,2.84a13.87,13.87,0,0,0-11.34,5.24q-5.32,6.52-5.33,19.11,0,12.9,5.52,19.85a13.63,13.63,0,0,0,11.19,5.28,15.3,15.3,0,0,0,12.25-5.78q4.85-5.79,4.84-18.26,0-13.51-5.32-20.16Q492.68,510.15,485.14,510.15Zm-.12,55.7a4.27,4.27,0,1,1-3,1.24A4.14,4.14,0,0,1,485,565.85Z"
                    transform="translate(-264.3 -507.31)" />
                <path
                    d="M562.13,507.31l1.21,17.91h-1.21q-2.42-8-6.87-11.58a16.75,16.75,0,0,0-10.73-3.53,16.62,16.62,0,0,0-16.14,11.15A37.74,37.74,0,0,0,526,535.74a30.77,30.77,0,0,0,2.29,12.4,17.22,17.22,0,0,0,6.89,8A19.87,19.87,0,0,0,545.66,559a18.23,18.23,0,0,0,9.05-2.19q3.93-2.19,8.63-8.72l1.2.78q-4,7-9.25,10.29a23.42,23.42,0,0,1-12.54,3.26q-13.1,0-20.28-9.71a27.8,27.8,0,0,1-5.36-17,30.27,30.27,0,0,1,3.53-14.49,25.56,25.56,0,0,1,9.73-10.24,26.32,26.32,0,0,1,13.54-3.63,24.78,24.78,0,0,1,11.27,2.8,6,6,0,0,0,2.33.85,2.51,2.51,0,0,0,1.82-.74,6,6,0,0,0,1.44-2.91Z"
                    transform="translate(-264.3 -507.31)" />
            </g>
            <path class="cls-3"
                d="M264.9,561.19v-1.44h2c2.22,0,3.81-.71,4.74-2.14.57-.85.85-2.77.85-5.74v-34q0-4.94-1.09-6.18a5.7,5.7,0,0,0-4.5-1.71h-2v-1.44h21.44q11.81,0,18,2.68a21.42,21.42,0,0,1,9.9,8.94A27.54,27.54,0,0,1,318,534.58q0,11-6.68,18.37-7.5,8.24-22.84,8.24Zm15-3.81a39.4,39.4,0,0,0,8.27,1.09,19.65,19.65,0,0,0,15-6.33q5.94-6.33,5.94-17.17t-5.94-17.21a20,20,0,0,0-15.27-6.29,33,33,0,0,0-8,1.12Z"
                transform="translate(-264.3 -507.31)" />
            <path class="cls-4"
                d="M358.94,510v-1.44h18.65V510h-2a5.35,5.35,0,0,0-4.78,2.6c-.55.81-.82,2.67-.82,5.6v21.36c0,5.29-.52,9.38-1.57,12.3a15.42,15.42,0,0,1-6.18,7.49q-4.61,3.13-12.52,3.13-8.62,0-13.1-3a16.24,16.24,0,0,1-6.33-8q-1.24-3.46-1.24-13V517.84q0-4.86-1.34-6.37A5.51,5.51,0,0,0,323.4,510h-2v-1.44h22.76V510h-2q-3.27,0-4.66,2.06-1,1.4-1,5.83v22.95a51.58,51.58,0,0,0,.56,7,15,15,0,0,0,2,6.17,11,11,0,0,0,4.25,3.65,14.7,14.7,0,0,0,6.82,1.44,18.85,18.85,0,0,0,9.25-2.25,12.13,12.13,0,0,0,5.57-5.77c1-2.35,1.5-6.31,1.5-11.91V517.84c0-3.29-.37-5.35-1.09-6.18a5.71,5.71,0,0,0-4.51-1.71Z"
                transform="translate(-264.3 -507.31)" />
            <path class="cls-5"
                d="M414.68,533h24.48V517.88a17.53,17.53,0,0,0-.51-5.33,3.52,3.52,0,0,0-1.63-1.67,7.15,7.15,0,0,0-3.54-.93h-1.86v-1.44h22.53V510h-1.86a7.44,7.44,0,0,0-3.54.89,3.3,3.3,0,0,0-1.69,1.89,18.74,18.74,0,0,0-.44,5.15v34a17.42,17.42,0,0,0,.5,5.28,3.52,3.52,0,0,0,1.59,1.67,7.38,7.38,0,0,0,3.58.93h1.86v1.44H431.62v-1.44h1.86a5.6,5.6,0,0,0,4.71-1.9c.64-.83,1-2.82,1-6v-16H414.68v16a17.31,17.31,0,0,0,.51,5.28,3.48,3.48,0,0,0,1.63,1.67,7.15,7.15,0,0,0,3.54.93h1.9v1.44H399.69v-1.44h1.86q3.27,0,4.74-1.9c.62-.83.94-2.82.94-6v-34a17.53,17.53,0,0,0-.51-5.33,3.56,3.56,0,0,0-1.59-1.67,7.38,7.38,0,0,0-3.58-.93h-1.86v-1.44h22.57V510h-1.9a7.44,7.44,0,0,0-3.54.89,3.41,3.41,0,0,0-1.67,1.89,18,18,0,0,0-.47,5.15Z"
                transform="translate(-264.3 -507.31)" />
            <path class="cls-6"
                d="M484.88,507.31a23.9,23.9,0,0,1,17.77,7.79q7.52,7.78,7.52,19.44,0,12-7.58,19.93a25.32,25.32,0,0,1-36.61.19q-7.39-7.73-7.4-20,0-12.55,8.55-20.47A25.17,25.17,0,0,1,484.88,507.31Zm-.74,2.84a13.87,13.87,0,0,0-11.34,5.24q-5.32,6.52-5.33,19.11,0,12.9,5.52,19.85a13.63,13.63,0,0,0,11.19,5.28,15.3,15.3,0,0,0,12.25-5.78q4.85-5.79,4.84-18.26,0-13.51-5.32-20.16Q491.68,510.15,484.14,510.15Zm-.12,55.7a4.27,4.27,0,1,1-3,1.24A4.14,4.14,0,0,1,484,565.85Z"
                transform="translate(-264.3 -507.31)" />
            <path class="cls-7"
                d="M561.13,507.31l1.21,17.91h-1.21q-2.42-8-6.87-11.58a16.75,16.75,0,0,0-10.73-3.53,16.62,16.62,0,0,0-16.14,11.15A37.74,37.74,0,0,0,525,535.74a30.77,30.77,0,0,0,2.29,12.4,17.22,17.22,0,0,0,6.89,8A19.87,19.87,0,0,0,544.66,559a18.23,18.23,0,0,0,9.05-2.19q3.93-2.19,8.63-8.72l1.2.78q-4,7-9.25,10.29a23.42,23.42,0,0,1-12.54,3.26q-13.1,0-20.28-9.71a27.8,27.8,0,0,1-5.36-17,30.27,30.27,0,0,1,3.53-14.49,25.56,25.56,0,0,1,9.73-10.24,26.32,26.32,0,0,1,13.54-3.63,24.78,24.78,0,0,1,11.27,2.8,6,6,0,0,0,2.33.85,2.51,2.51,0,0,0,1.82-.74,6,6,0,0,0,1.44-2.91Z"
                transform="translate(-264.3 -507.31)" />
            <g class="cls-2">
                <path
                    d="M338.1,585.32v21.93H336q-1.92-7.59-4.25-10.91a16.35,16.35,0,0,0-6.39-5.29c-1.52-.71-4.16-1.07-7.95-1.07h-6V652.5q0,6.21.69,7.77A6.13,6.13,0,0,0,314.7,663a10.84,10.84,0,0,0,5.47,1.17h2.69v2.21H280.42v-2.21h2.69a11.28,11.28,0,0,0,5.68-1.25,5.74,5.74,0,0,0,2.45-2.87q.66-1.44.66-7.53V590H286q-8.19,0-11.89,3.46-5.2,4.84-6.58,13.81H265.3V585.32Z"
                    transform="translate(-264.3 -507.31)" />
                <path
                    d="M375,629.42v22.72q0,6.57.8,8.27a5.88,5.88,0,0,0,2.84,2.72q2,1,7.59,1v2.21H344.79v-2.21q5.63,0,7.62-1a6,6,0,0,0,2.81-2.72q.81-1.67.81-8.24v-52.6q0-6.57-.81-8.28a5.89,5.89,0,0,0-2.84-2.72q-2-1-7.59-1v-2.21h37.66q14.7,0,21.51,2a21.6,21.6,0,0,1,11.12,7.5,20.11,20.11,0,0,1,4.31,12.82,19.15,19.15,0,0,1-6.46,14.82q-4.12,3.71-11.54,5.56l19.49,27.43a41.34,41.34,0,0,0,5.44,6.64,10.17,10.17,0,0,0,5.68,2v2.21H406.48l-26.12-36.94Zm0-39.74v35.5h3.4q8.31,0,12.44-1.52a12.41,12.41,0,0,0,6.48-5.5q2.36-4,2.36-10.37,0-9.27-4.33-13.69t-14-4.42Z"
                    transform="translate(-264.3 -507.31)" />
                <path
                    d="M475.75,664.15v2.21H433.37v-2.21h2.69a11.3,11.3,0,0,0,5.68-1.25,5.46,5.46,0,0,0,2.39-2.87q.66-1.44.66-7.53V599.18q0-6.21-.66-7.77a6,6,0,0,0-2.66-2.72,10.84,10.84,0,0,0-5.41-1.16h-2.69v-2.21h42.38v2.21h-2.69a11.2,11.2,0,0,0-5.68,1.25,5.74,5.74,0,0,0-2.45,2.87q-.66,1.44-.66,7.53V652.5q0,6.21.69,7.77a6.13,6.13,0,0,0,2.69,2.71,10.7,10.7,0,0,0,5.41,1.17Z"
                    transform="translate(-264.3 -507.31)" />
                <path
                    d="M511.91,590v33h1.61q7.71,0,11.18-4.84t4.42-14.29h2.27v42.44h-2.27a31.73,31.73,0,0,0-3-11.36c-1.53-2.94-3.31-4.93-5.35-5.94s-5-1.53-8.84-1.53v22.83q0,6.71.57,8.19a4.81,4.81,0,0,0,2.12,2.45,9.91,9.91,0,0,0,5,1h4.84q11.35,0,18.2-5.26t9.83-16h2.21l-3.64,25.76H481v-2.21h2.69a11.24,11.24,0,0,0,5.67-1.25,5.48,5.48,0,0,0,2.4-2.87q.64-1.44.65-7.53V599.18a42.26,42.26,0,0,0-.3-6.75,5.66,5.66,0,0,0-2.21-3.23,10.29,10.29,0,0,0-6.21-1.67H481v-2.21h67.83v24h-2.27q-1.73-8.78-4.87-12.61a18.13,18.13,0,0,0-8.87-5.62Q529.47,590,520.27,590Zm2.51-20.44h11.11l9.63,8.72h-2.87l-12.55-4.06-12.08,4.06h-2.8Zm2.15,102.92a10,10,0,1,1-7,2.93A9.48,9.48,0,0,1,516.57,672.46Z"
                    transform="translate(-264.3 -507.31)" />
                <path
                    d="M563.07,585.32h41.84v2.21h-2.09q-4.73,0-6.49,1a5.69,5.69,0,0,0-2.51,2.72q-.75,1.74-.75,8.67v39.68q0,10.89,1.65,14.41a13.71,13.71,0,0,0,5.41,5.86,17.78,17.78,0,0,0,9.5,2.33,20.43,20.43,0,0,0,11.21-3,18.15,18.15,0,0,0,6.93-8.16q2.29-5.2,2.3-18.11V599.9q0-5.45-1.13-7.77a6.83,6.83,0,0,0-2.87-3.23,17,17,0,0,0-7.59-1.37v-2.21h28v2.21h-1.68a10.73,10.73,0,0,0-5.67,1.37,7.78,7.78,0,0,0-3.29,4.13q-.78,1.9-.78,6.87v30.78q0,14.28-1.88,20.62T624,663q-7.29,5.32-19.9,5.32-10.51,0-16.26-2.8-7.83-3.83-11-9.81t-3.23-16.08V599.9q0-7-.78-8.7a5.84,5.84,0,0,0-2.69-2.72q-1.9-1-7-1Z"
                    transform="translate(-264.3 -507.31)" />
                <path
                    d="M712.25,629.66v22.48q0,6.57.81,8.27a5.87,5.87,0,0,0,2.87,2.72q2.05,1,7.56,1v2.21H682.31v-2.21q5.61,0,7.62-1a6.09,6.09,0,0,0,2.81-2.72q.81-1.67.81-8.24v-52.6q0-6.57-.81-8.28a6,6,0,0,0-2.84-2.72q-2-1-7.59-1v-2.21h35.32q17.46,0,25,6.21a19.31,19.31,0,0,1,7.59,15.54,19.9,19.9,0,0,1-4.9,13.51,24.94,24.94,0,0,1-13.51,7.65Q726.06,629.67,712.25,629.66Zm0-39.68v35c1.32.08,2.31.12,3,.12q7.29,0,11.24-4.33t3.94-13.42q0-9-3.94-13.21T714.7,590Z"
                    transform="translate(-264.3 -507.31)" />
                <path
                    d="M787.44,627.39V652.5q0,6.21.69,7.77a6.13,6.13,0,0,0,2.69,2.71,10.7,10.7,0,0,0,5.41,1.17h2.69v2.21H756.54v-2.21h2.69a11.28,11.28,0,0,0,5.68-1.25A5.46,5.46,0,0,0,767.3,660q.66-1.44.66-7.53V599.18q0-6.21-.66-7.77a6,6,0,0,0-2.66-2.72,10.81,10.81,0,0,0-5.41-1.16h-2.69v-2.21h42.38v2.21h-2.69a11.2,11.2,0,0,0-5.68,1.25,5.74,5.74,0,0,0-2.45,2.87q-.66,1.44-.66,7.53v23h28.63v-23q0-6.21-.66-7.77a5.94,5.94,0,0,0-2.69-2.72,10.94,10.94,0,0,0-5.43-1.16h-2.63v-2.21H847v2.21h-2.63a11,11,0,0,0-5.68,1.25,5.79,5.79,0,0,0-2.45,2.87c-.43,1-.66,3.47-.66,7.53V652.5c0,4.14.23,6.73.66,7.77A6,6,0,0,0,838.9,663a10.9,10.9,0,0,0,5.44,1.17H847v2.21H804.66v-2.21h2.63A11,11,0,0,0,813,662.9a5.69,5.69,0,0,0,2.45-2.87q.66-1.44.66-7.53V627.39Z"
                    transform="translate(-264.3 -507.31)" />
                <path
                    d="M852.05,585.32h41.84v2.21H891.8q-4.72,0-6.49,1a5.69,5.69,0,0,0-2.51,2.72q-.74,1.74-.74,8.67v39.68q0,10.89,1.64,14.41a13.77,13.77,0,0,0,5.41,5.86,17.81,17.81,0,0,0,9.5,2.33,20.41,20.41,0,0,0,11.21-3,18.09,18.09,0,0,0,6.93-8.16q2.31-5.2,2.31-18.11V599.9c0-3.63-.39-6.22-1.14-7.77a6.83,6.83,0,0,0-2.87-3.23,16.93,16.93,0,0,0-7.59-1.37v-2.21h28v2.21h-1.67a10.77,10.77,0,0,0-5.68,1.37,7.78,7.78,0,0,0-3.29,4.13c-.52,1.27-.77,3.56-.77,6.87v30.78q0,14.28-1.89,20.62T913,663q-7.29,5.32-19.9,5.32-10.53,0-16.26-2.8-7.83-3.83-11.06-9.81t-3.23-16.08V599.9q0-7-.77-8.7a5.89,5.89,0,0,0-2.69-2.72q-1.92-1-7.06-1Zm57.86-27.68-19.78,20.74H885l6.93-20.74Z"
                    transform="translate(-264.3 -507.31)" />
            </g>
            <path class="cls-8"
                d="M337.1,584.32v21.93H335q-1.92-7.59-4.25-10.91a16.35,16.35,0,0,0-6.39-5.29c-1.52-.71-4.16-1.07-7.95-1.07h-6V651.5q0,6.21.69,7.77A6.13,6.13,0,0,0,313.7,662a10.84,10.84,0,0,0,5.47,1.17h2.69v2.21H279.42v-2.21h2.69a11.28,11.28,0,0,0,5.68-1.25,5.74,5.74,0,0,0,2.45-2.87q.66-1.44.66-7.53V589H285q-8.19,0-11.89,3.46-5.2,4.84-6.58,13.81H264.3V584.32Z"
                transform="translate(-264.3 -507.31)" />
            <path class="cls-8"
                d="M374,628.42v22.72q0,6.57.8,8.27a5.88,5.88,0,0,0,2.84,2.72q2,1,7.59,1v2.21H343.79v-2.21q5.63,0,7.62-1a6,6,0,0,0,2.81-2.72q.81-1.67.81-8.24v-52.6q0-6.57-.81-8.28a5.89,5.89,0,0,0-2.84-2.72q-2-1-7.59-1v-2.21h37.66q14.7,0,21.51,2a21.6,21.6,0,0,1,11.12,7.5,20.11,20.11,0,0,1,4.31,12.82,19.15,19.15,0,0,1-6.46,14.82q-4.12,3.71-11.54,5.56l19.49,27.43a41.34,41.34,0,0,0,5.44,6.64,10.17,10.17,0,0,0,5.68,2v2.21H405.48l-26.12-36.94Zm0-39.74v35.5h3.4q8.31,0,12.44-1.52a12.41,12.41,0,0,0,6.48-5.5q2.36-4,2.36-10.37,0-9.27-4.33-13.69t-14-4.42Z"
                transform="translate(-264.3 -507.31)" />
            <path class="cls-8"
                d="M474.75,663.15v2.21H432.37v-2.21h2.69a11.3,11.3,0,0,0,5.68-1.25,5.46,5.46,0,0,0,2.39-2.87q.66-1.44.66-7.53V598.18q0-6.21-.66-7.77a6,6,0,0,0-2.66-2.72,10.84,10.84,0,0,0-5.41-1.16h-2.69v-2.21h42.38v2.21h-2.69a11.2,11.2,0,0,0-5.68,1.25,5.74,5.74,0,0,0-2.45,2.87q-.66,1.44-.66,7.53V651.5q0,6.21.69,7.77a6.13,6.13,0,0,0,2.69,2.71,10.7,10.7,0,0,0,5.41,1.17Z"
                transform="translate(-264.3 -507.31)" />
            <path class="cls-9"
                d="M510.91,589v33h1.61q7.71,0,11.18-4.84t4.42-14.29h2.27v42.44h-2.27a31.73,31.73,0,0,0-3-11.36c-1.53-2.94-3.31-4.93-5.35-5.94s-5-1.53-8.84-1.53v22.83q0,6.71.57,8.19a4.81,4.81,0,0,0,2.12,2.45,9.91,9.91,0,0,0,5,1h4.84q11.35,0,18.2-5.26t9.83-16h2.21l-3.64,25.76H480v-2.21h2.69a11.24,11.24,0,0,0,5.67-1.25,5.48,5.48,0,0,0,2.4-2.87q.64-1.44.65-7.53V598.18a42.26,42.26,0,0,0-.3-6.75,5.66,5.66,0,0,0-2.21-3.23,10.29,10.29,0,0,0-6.21-1.67H480v-2.21h67.83v24h-2.27q-1.73-8.78-4.87-12.61a18.13,18.13,0,0,0-8.87-5.62Q528.47,589,519.27,589Zm2.51-20.44h11.11l9.63,8.72h-2.87l-12.55-4.06-12.08,4.06h-2.8Zm2.15,102.92a10,10,0,1,1-7,2.93A9.48,9.48,0,0,1,515.57,671.46Z"
                transform="translate(-264.3 -507.31)" />
            <path class="cls-10"
                d="M562.07,584.32h41.84v2.21h-2.09q-4.73,0-6.49,1a5.69,5.69,0,0,0-2.51,2.72q-.75,1.74-.75,8.67v39.68q0,10.89,1.65,14.41a13.71,13.71,0,0,0,5.41,5.86,17.78,17.78,0,0,0,9.5,2.33,20.43,20.43,0,0,0,11.21-3,18.15,18.15,0,0,0,6.93-8.16q2.29-5.2,2.3-18.11V598.9q0-5.45-1.13-7.77a6.83,6.83,0,0,0-2.87-3.23,17,17,0,0,0-7.59-1.37v-2.21h28v2.21h-1.68a10.73,10.73,0,0,0-5.67,1.37,7.78,7.78,0,0,0-3.29,4.13q-.78,1.9-.78,6.87v30.78q0,14.28-1.88,20.62T623,662q-7.29,5.32-19.9,5.32-10.51,0-16.26-2.8-7.83-3.83-11-9.81t-3.23-16.08V598.9q0-7-.78-8.7a5.84,5.84,0,0,0-2.69-2.72q-1.9-1-7-1Z"
                transform="translate(-264.3 -507.31)" />
            <path class="cls-8"
                d="M711.25,628.66v22.48q0,6.57.81,8.27a5.87,5.87,0,0,0,2.87,2.72q2.05,1,7.56,1v2.21H681.31v-2.21q5.61,0,7.62-1a6.09,6.09,0,0,0,2.81-2.72q.81-1.67.81-8.24v-52.6q0-6.57-.81-8.28a6,6,0,0,0-2.84-2.72q-2-1-7.59-1v-2.21h35.32q17.46,0,25,6.21a19.31,19.31,0,0,1,7.59,15.54,19.9,19.9,0,0,1-4.9,13.51,24.94,24.94,0,0,1-13.51,7.65Q725.06,628.67,711.25,628.66Zm0-39.68v35c1.32.08,2.31.12,3,.12q7.29,0,11.24-4.33t3.94-13.42q0-9-3.94-13.21T713.7,589Z"
                transform="translate(-264.3 -507.31)" />
            <path class="cls-8"
                d="M786.44,626.39V651.5q0,6.21.69,7.77a6.13,6.13,0,0,0,2.69,2.71,10.7,10.7,0,0,0,5.41,1.17h2.69v2.21H755.54v-2.21h2.69a11.28,11.28,0,0,0,5.68-1.25A5.46,5.46,0,0,0,766.3,659q.66-1.44.66-7.53V598.18q0-6.21-.66-7.77a6,6,0,0,0-2.66-2.72,10.81,10.81,0,0,0-5.41-1.16h-2.69v-2.21h42.38v2.21h-2.69a11.2,11.2,0,0,0-5.68,1.25,5.74,5.74,0,0,0-2.45,2.87q-.66,1.44-.66,7.53v23h28.63v-23q0-6.21-.66-7.77a5.94,5.94,0,0,0-2.69-2.72,10.94,10.94,0,0,0-5.43-1.16h-2.63v-2.21H846v2.21h-2.63a11,11,0,0,0-5.68,1.25,5.79,5.79,0,0,0-2.45,2.87c-.43,1-.66,3.47-.66,7.53V651.5c0,4.14.23,6.73.66,7.77A6,6,0,0,0,837.9,662a10.9,10.9,0,0,0,5.44,1.17H846v2.21H803.66v-2.21h2.63A11,11,0,0,0,812,661.9a5.69,5.69,0,0,0,2.45-2.87q.66-1.44.66-7.53V626.39Z"
                transform="translate(-264.3 -507.31)" />
            <path class="cls-11"
                d="M851.05,584.32h41.84v2.21H890.8q-4.72,0-6.49,1a5.69,5.69,0,0,0-2.51,2.72q-.74,1.74-.74,8.67v39.68q0,10.89,1.64,14.41a13.77,13.77,0,0,0,5.41,5.86,17.81,17.81,0,0,0,9.5,2.33,20.41,20.41,0,0,0,11.21-3,18.09,18.09,0,0,0,6.93-8.16q2.31-5.2,2.31-18.11V598.9c0-3.63-.39-6.22-1.14-7.77a6.83,6.83,0,0,0-2.87-3.23,16.93,16.93,0,0,0-7.59-1.37v-2.21h28v2.21h-1.67a10.77,10.77,0,0,0-5.68,1.37,7.78,7.78,0,0,0-3.29,4.13c-.52,1.27-.77,3.56-.77,6.87v30.78q0,14.28-1.89,20.62T912,662q-7.29,5.32-19.9,5.32-10.53,0-16.26-2.8-7.83-3.83-11.06-9.81t-3.23-16.08V598.9q0-7-.77-8.7a5.89,5.89,0,0,0-2.69-2.72q-1.92-1-7.06-1Zm57.86-27.68-19.78,20.74H884l6.93-20.74Z"
                transform="translate(-264.3 -507.31)" />
        </g>
    </g>
</svg>